ply
format ascii 1.0
comment Created by Blender 3.3.1 - www.blender.org
element vertex 244
property float x
property float y
property float z
property float nx
property float ny
property float nz
property float s
property float t
element face 144
property list uchar uint vertex_indices
end_header
0.002666 0.173517 1.599372 -0.221242 0.958840 0.177982 0.703270 0.785118
-0.049858 0.049639 2.661704 -0.262868 0.964766 0.011268 0.708570 0.676344
0.172428 0.066081 2.841486 0.474064 0.878154 -0.064092 0.730348 0.657091
0.208357 0.128922 1.565638 0.553565 0.821455 0.137034 0.728230 0.788183
0.313434 -0.061875 2.967141 0.926929 0.374136 -0.028707 0.755536 0.644287
0.335481 -0.050424 1.544789 0.947623 0.313624 0.060422 0.756122 0.790745
0.335481 -0.050424 1.544789 0.947623 0.313624 0.060422 0.425606 0.158626
0.313434 -0.061875 2.967141 0.926929 0.374136 -0.028707 0.419300 0.305316
0.332794 -0.237285 3.042759 0.965719 -0.256315 0.041110 0.400544 0.312899
0.335481 -0.269421 1.544789 0.952659 -0.304041 0.000181 0.400778 0.158319
0.267784 -0.381516 3.217232 0.664277 -0.727264 0.172690 0.379341 0.330605
0.208357 -0.457275 1.565638 0.707063 -0.707046 -0.012148 0.370783 0.160028
0.090321 -0.471274 3.217232 0.044987 -0.977154 0.207718 0.357096 0.330230
0.002666 -0.561984 1.599372 0.142562 -0.987537 0.066690 0.344841 0.163072
0.002666 -0.561984 1.599372 0.142562 -0.987537 0.066690 0.523986 0.822878
0.090321 -0.471274 3.217232 0.044987 -0.977154 0.207718 0.511556 0.656448
-0.127299 -0.436815 3.060382 -0.567955 -0.813170 0.127209 0.540761 0.671970
-0.203025 -0.453895 1.633107 -0.652160 -0.751731 0.097917 0.554232 0.818890
-0.260849 -0.267552 2.967141 -0.938746 -0.338272 0.065789 0.565040 0.681393
-0.330150 -0.264756 1.653956 -0.951380 -0.299060 0.073755 0.578183 0.816595
-0.330150 -0.264756 1.653956 -0.951380 -0.299060 0.073755 0.215134 0.182131
-0.260849 -0.267552 2.967141 -0.938746 -0.338272 0.065789 0.192803 0.316586
-0.260849 -0.103077 2.967141 -0.931147 0.363658 -0.026782 0.177237 0.314503
-0.330150 -0.071167 1.653956 -0.915061 0.387073 0.113307 0.196812 0.179679
-0.049858 0.049639 2.661704 -0.262868 0.964766 0.011268 0.147256 0.281133
-0.169098 -0.034564 2.895234 -0.587728 0.805968 -0.070655 0.163246 0.306203
-0.157828 0.323792 4.343442 -0.602887 0.797486 0.023317 0.110373 0.449954
0.020530 0.371140 4.342219 -0.091775 0.995623 0.017647 0.089586 0.449095
-0.203025 0.021234 1.633107 -0.589980 0.795842 0.136230 0.176692 0.176278
0.002666 0.173517 1.599372 -0.221242 0.958840 0.177982 0.143875 0.170740
-0.375693 -0.247740 0.730127 -0.924535 -0.258842 0.279706 0.587674 0.911741
-0.292345 -0.629900 0.737813 -0.633560 -0.683857 0.361859 0.560805 0.910681
-0.800072 -0.348811 0.019417 -0.854377 -0.218579 -0.471448 0.638739 0.983524
-0.497460 -0.946977 0.022011 -0.586165 -0.683758 -0.434610 0.575194 0.983389
-0.042214 -0.661647 0.750250 0.248315 -0.910672 0.330176 0.528132 0.910158
-0.042214 -0.661647 0.750250 0.248315 -0.910672 0.330176 0.332584 0.075270
0.219616 -0.340967 0.762686 0.697052 -0.685439 0.210457 0.386716 0.077370
0.381435 -0.178449 0.770372 0.895955 -0.347167 0.277018 0.416126 0.078618
0.219616 0.328466 0.762686 0.587678 0.700303 0.405228 0.712578 0.870018
-0.014506 0.446924 0.750249 -0.102072 0.871196 0.480207 0.678581 0.871471
0.381435 0.037456 0.770372 0.913415 0.247960 0.322782 0.440604 0.078920
0.381435 0.037456 0.770372 0.913415 0.247960 0.322782 0.753253 0.870026
-0.014506 0.446924 0.750249 -0.102072 0.871196 0.480207 0.130079 0.080338
-0.262415 0.223920 0.737812 -0.598427 0.696686 0.395618 0.174025 0.082076
-0.487740 0.034150 0.730127 -0.890062 0.249176 0.381707 0.212699 0.083862
-0.375693 -0.247740 0.730127 -0.924535 -0.258842 0.279706 0.229126 0.087348
-0.007823 0.935719 0.026206 -0.050345 0.913217 -0.404353 0.829845 0.187992
0.481814 0.776620 0.030403 0.584467 0.709652 -0.393435 0.781568 0.150535
0.784426 0.243872 0.032997 0.866505 0.243637 -0.435672 0.777663 0.087387
0.784426 -0.348811 0.032997 0.833283 -0.368949 -0.411724 0.813042 0.032818
0.481814 -0.605701 0.030404 0.612186 -0.617763 -0.493557 0.864082 0.023262
-0.007823 -1.106075 0.026207 0.233380 -0.888497 -0.395105 0.951724 0.000000
-0.497460 -0.946977 0.022011 -0.586165 -0.683758 -0.434610 1.000000 0.037457
-0.800072 -0.348811 0.019417 -0.854377 -0.218579 -0.471448 1.000000 0.106628
-0.800072 0.243872 0.019417 -0.855839 0.246934 -0.454492 0.964621 0.161197
-0.497460 0.776620 0.022010 -0.585463 0.712127 -0.387439 0.897115 0.196152
0.481814 -0.605701 0.030404 0.612186 -0.617763 -0.493557 0.376339 0.001822
0.784426 -0.348811 0.032997 0.833283 -0.368949 -0.411724 0.426036 0.002876
0.481814 0.776620 0.030403 0.584467 0.709652 -0.393435 0.702546 0.942741
-0.007823 0.935719 0.026206 -0.050345 0.913217 -0.404353 0.638739 0.943918
-0.800072 0.243872 0.019417 -0.855839 0.246934 -0.454492 0.230228 0.008662
-0.800072 -0.348811 0.019417 -0.854377 -0.218579 -0.471448 0.286322 0.016170
-0.007823 -1.106075 0.026207 0.233380 -0.888497 -0.395105 0.286322 0.000000
0.784426 0.243872 0.032997 0.866505 0.243637 -0.435672 0.777663 0.943918
-0.497460 0.776620 0.022010 -0.585463 0.712127 -0.387439 0.152083 0.001953
-0.007823 -1.106075 0.026207 0.233380 -0.888497 -0.395105 0.507136 0.984310
0.784426 0.243872 0.032997 0.866505 0.243637 -0.435672 0.493230 0.003705
-0.007823 0.935719 0.026206 -0.050345 0.913217 -0.404353 0.092168 0.000000
0.197850 0.295405 4.322912 0.465819 0.884867 -0.004789 0.714935 0.503349
0.020530 0.371140 4.342219 -0.091775 0.995623 0.017647 0.690351 0.501551
0.036078 0.207477 5.065462 -0.038581 0.983759 0.175298 0.705790 0.427694
0.213952 0.201241 5.054793 0.498312 0.826457 0.262020 0.728763 0.428513
-0.266283 0.172826 4.327162 -0.933050 0.359719 0.004495 0.134787 0.450280
-0.264805 0.063121 4.304289 -0.957616 -0.287785 -0.012267 0.145318 0.449327
-0.167118 -0.049842 4.246038 -0.629416 -0.777053 0.004837 0.558434 0.550116
-0.264805 0.063121 4.304289 -0.957616 -0.287785 -0.012267 0.575307 0.543953
-0.014880 -0.124156 4.168938 -0.086308 -0.992503 0.086540 0.536466 0.558453
0.267784 -0.381516 3.217232 0.664277 -0.727264 0.172690 0.493230 0.657146
0.163320 -0.087134 4.183350 0.607724 -0.794047 0.012702 0.515733 0.557592
0.273813 0.050271 4.188172 0.970023 -0.242906 -0.007253 0.426309 0.431385
0.163320 -0.087134 4.183350 0.607724 -0.794047 0.012702 0.403229 0.430539
0.292534 0.212624 4.261167 0.904076 0.424794 -0.046871 0.445809 0.439169
0.292534 0.212624 4.261167 0.904076 0.424794 -0.046871 0.731513 0.509796
-0.249337 -0.002573 5.045713 -0.958653 0.283715 -0.022141 0.140943 0.526070
-0.247859 -0.143775 5.022840 -0.922311 -0.375494 -0.091363 0.154455 0.525515
-0.269346 -0.130643 5.195243 -0.906401 -0.352041 -0.233463 0.153045 0.543019
-0.270526 -0.002618 5.213502 -0.924874 0.317137 -0.209837 0.140809 0.543268
0.217820 -0.301868 4.994910 0.521001 -0.852688 0.038485 0.498686 0.473829
0.040859 -0.321662 4.991442 -0.071327 -0.995873 -0.056120 0.518279 0.473534
0.324797 0.094216 5.034063 0.864072 0.500476 0.053884 0.748837 0.430780
-0.140882 0.148393 5.061993 -0.584898 0.807771 0.073493 0.116529 0.525743
-0.137014 -0.266297 5.002110 -0.555010 -0.824888 -0.107345 0.542858 0.471939
0.324797 0.094216 5.034063 0.864072 0.500476 0.053884 0.427368 0.518720
0.326274 -0.158400 5.011190 0.870591 -0.488892 -0.055276 0.409494 0.516139
0.036078 0.207477 5.065462 -0.038581 0.983759 0.175298 0.094701 0.525217
-0.247859 -0.143775 5.022840 -0.922311 -0.375494 -0.091363 0.561911 0.469616
0.217820 -0.301868 4.994910 0.521001 -0.852688 0.038485 0.385043 0.514095
-0.187780 0.126041 5.253830 -0.591362 0.802112 -0.083111 0.120562 0.545706
-0.510404 -0.095097 5.839243 -0.921904 0.313627 -0.227445 0.163767 0.608696
-0.405404 0.050034 5.874873 -0.589524 0.802115 -0.095250 0.139982 0.610428
0.086175 -0.251699 5.288610 0.531836 -0.834291 0.145288 0.514635 0.443134
-0.048895 -0.292518 5.241697 -0.039981 -0.998601 -0.034602 0.529921 0.447479
0.083076 0.136554 5.336588 0.471645 0.832741 0.289989 0.716630 0.399927
0.167738 0.013555 5.347249 0.692973 0.490204 0.528667 0.735512 0.399118
-0.184692 -0.242332 5.206027 -0.532476 -0.830733 -0.162334 0.549171 0.450790
0.168926 -0.135284 5.328865 0.732245 -0.528568 0.429457 0.807435 0.655938
0.326274 -0.158400 5.011190 0.870591 -0.488892 -0.055276 0.807435 0.691958
0.481321 -0.081217 5.260527 0.860171 -0.482598 0.164941 0.777663 0.674313
0.373581 -0.083906 5.330957 0.301383 -0.581723 0.755491 0.786071 0.663371
-0.052717 0.179515 5.300858 -0.095307 0.990603 0.098095 0.102559 0.549743
-0.269346 -0.130643 5.195243 -0.906401 -0.352041 -0.233463 0.564589 0.451786
0.168926 -0.135284 5.328865 0.732245 -0.528568 0.429457 0.395326 0.548657
0.086175 -0.251699 5.288610 0.531836 -0.834291 0.145288 0.376600 0.544225
-0.052717 0.179515 5.300858 -0.095307 0.990603 0.098095 0.699011 0.403820
-0.375538 -0.376250 5.940617 -0.430790 -0.852108 -0.297209 0.564833 0.374233
-0.203299 -0.432003 5.961957 0.127810 -0.976200 -0.175210 0.540836 0.372509
-0.218998 -0.450017 6.304148 0.277674 -0.930618 -0.238425 0.540888 0.337145
-0.438609 -0.617048 6.512118 -0.261562 -0.826380 -0.498680 0.560471 0.314754
0.167738 0.013555 5.347249 0.692973 0.490204 0.528667 0.412074 0.550760
0.054314 -0.074742 5.974428 0.939346 0.338140 -0.057367 0.392804 0.615180
0.073044 -0.232185 6.032795 0.934381 -0.337417 -0.114380 0.376084 0.621008
-0.234146 0.111709 5.911392 -0.152123 0.987917 -0.029653 0.118022 0.613257
-0.498814 -0.257789 5.865228 -0.878484 -0.380121 -0.289436 0.585585 0.381777
-0.031956 -0.370617 5.997166 0.554866 -0.828739 -0.072902 0.353337 0.616991
-0.234146 0.111709 5.911392 -0.152123 0.987917 -0.029653 0.686107 0.341738
-0.062068 0.077152 5.935228 0.517084 0.855513 -0.026868 0.706789 0.338926
-0.498814 -0.257789 5.865228 -0.878484 -0.380121 -0.289436 0.177783 0.613409
-0.031956 -0.370617 5.997166 0.554866 -0.828739 -0.072902 0.521938 0.369516
0.054314 -0.074742 5.974428 0.939346 0.338140 -0.057367 0.731345 0.335209
-0.577581 -0.040264 6.316357 -0.863130 0.495699 0.096382 0.158819 0.656909
-0.576630 -0.318693 6.315055 -0.923404 -0.296997 -0.243142 0.185100 0.660302
-0.656983 -0.720950 6.901469 -0.920389 -0.359698 -0.153298 0.223266 0.725507
-0.656984 -0.578918 6.901470 -0.972262 0.230957 0.036967 0.209824 0.723708
0.220188 0.014829 6.506590 0.900860 0.309577 -0.304324 0.412927 0.670440
0.222826 -0.181523 6.465763 0.922698 -0.345464 -0.171122 0.390946 0.665957
-0.399339 0.044713 6.326036 -0.583067 0.739627 0.336131 0.134347 0.656691
-0.155594 0.245042 6.588346 -0.307435 0.950662 0.041547 0.089835 0.680831
-0.576630 -0.318693 6.315055 -0.923404 -0.296997 -0.243142 0.591201 0.335052
0.031023 -0.380513 6.392481 0.550783 -0.795666 0.252098 0.355523 0.657848
-0.155594 0.245042 6.588346 -0.307435 0.950662 0.041547 0.683655 0.271162
0.139744 0.161510 6.590668 0.545250 0.787870 -0.286291 0.721121 0.270418
0.031023 -0.380513 6.392481 0.550783 -0.795666 0.252098 0.512328 0.328938
0.220188 0.014829 6.506590 0.900860 0.309577 -0.304324 0.741460 0.279490
0.481321 -0.081217 5.260527 0.860171 -0.482598 0.164941 0.867578 0.495886
0.480786 -0.014134 5.268813 0.847785 0.457749 0.267818 0.876516 0.495886
0.373154 -0.030356 5.337572 0.289861 0.417123 0.861388 0.875615 0.508640
0.373581 -0.083906 5.330957 0.301383 -0.581723 0.755491 0.868480 0.508640
0.480786 -0.014134 5.268813 0.847785 0.457749 0.267818 0.430417 0.543071
0.481321 -0.081217 5.260527 0.860171 -0.482598 0.164941 0.422869 0.542123
0.373154 -0.030356 5.337572 0.289861 0.417123 0.861388 0.760399 0.399702
0.480786 -0.014134 5.268813 0.847785 0.457749 0.267818 0.770182 0.406401
0.167738 0.013555 5.347249 0.692973 0.490204 0.528667 0.881749 0.528987
0.168926 -0.135284 5.328865 0.732245 -0.528568 0.429457 0.861918 0.528987
0.421478 0.087934 7.335424 0.948174 -0.313632 -0.051003 0.432859 0.756333
0.359851 0.000272 7.331100 0.046425 -0.936394 0.347865 0.418740 0.755677
-0.452213 -0.818686 6.873679 0.326865 -0.917336 -0.227276 0.870888 0.380870
-0.326447 -0.729435 6.858178 0.943359 -0.330975 0.023005 0.881576 0.380984
-0.288436 -0.667988 7.949807 0.342182 -0.024927 0.939303 0.881576 0.495886
-0.388941 -0.811813 7.835250 0.430247 -0.824802 0.366865 0.861918 0.480696
-0.452213 -0.818686 6.873679 0.326865 -0.917336 -0.227276 0.547895 0.276997
-0.579505 -0.840652 6.893835 -0.429686 -0.878096 -0.210516 0.567018 0.274616
-0.580847 -0.462156 6.896148 -0.089387 0.894398 0.438250 0.191872 0.721627
0.031023 -0.380513 6.392481 0.550783 -0.795666 0.252098 0.913342 0.611812
-0.399339 0.044713 6.326036 -0.583067 0.739627 0.336131 0.839318 0.612585
-0.580847 -0.462156 6.896148 -0.089387 0.894398 0.438250 0.848975 0.554954
-0.326447 -0.729435 6.858178 0.943359 -0.330975 0.023005 0.913342 0.541708
-0.656983 -0.720950 6.901469 -0.920389 -0.359698 -0.153298 0.582011 0.273752
-0.326447 -0.729435 6.858178 0.943359 -0.330975 0.023005 0.532963 0.279024
-0.927970 -0.708532 8.531557 -0.154359 0.942619 0.296046 0.226711 0.892476
-0.951958 -0.748079 8.523844 -0.965623 0.257892 -0.032615 0.232745 0.892205
-1.310613 -1.099050 9.530472 -0.931458 0.277752 -0.235032 0.286322 1.000000
-0.326447 -0.729435 6.858178 0.943359 -0.330975 0.023005 0.839318 0.655939
-0.580847 -0.462156 6.896148 -0.089387 0.894398 0.438250 0.777663 0.645895
-0.506958 -0.319316 7.687109 0.052020 0.988483 0.142112 0.784751 0.563681
-0.288436 -0.667988 7.949807 0.342182 -0.024927 0.939303 0.839318 0.541708
-0.601627 -0.655663 7.655113 -0.941434 -0.314799 -0.120849 0.202693 0.801812
-0.601939 -0.477871 7.655447 -0.939517 0.322191 -0.116195 0.185891 0.799595
-0.388941 -0.811813 7.835250 0.430247 -0.824802 0.366865 0.541499 0.178194
-0.507089 -0.788216 7.750733 -0.377316 -0.919571 -0.109640 0.557563 0.186562
-0.506958 -0.319316 7.687109 0.052020 0.988483 0.142112 0.161801 0.800757
-0.601627 -0.655663 7.655113 -0.941434 -0.314799 -0.120849 0.575395 0.196304
-0.288436 -0.667988 7.949807 0.342182 -0.024927 0.939303 0.833961 0.655937
-0.506958 -0.319316 7.687109 0.052020 0.988483 0.142112 0.833961 0.688005
-0.388941 -0.811813 7.835250 0.430247 -0.824802 0.366865 0.807435 0.661003
-1.310613 -1.099050 9.530472 0.005090 0.930683 0.365792 0.777663 0.541707
-0.951901 -0.792472 8.523708 -0.937665 -0.323099 -0.128025 0.610417 0.105410
-0.927712 -0.825660 8.530926 -0.538450 -0.837838 -0.089995 0.605943 0.104696
-1.310613 -1.099050 9.530472 -0.424944 -0.818487 -0.386653 0.638739 0.000000
-0.951901 -0.792472 8.523708 -0.937665 -0.323099 -0.128025 0.236943 0.892754
-0.888686 -0.834141 8.542852 0.599955 -0.769727 0.218117 0.876341 0.296530
-0.927970 -0.708532 8.531557 -0.154359 0.942619 0.296046 0.861918 0.296370
-1.310613 -1.099050 9.530472 0.005090 0.930683 0.365792 0.865025 0.196152
-0.888686 -0.834141 8.542852 0.599955 -0.769727 0.218117 0.600660 0.103580
-0.388941 -0.811813 7.835250 0.430247 -0.824802 0.366865 0.918541 0.370708
-0.506958 -0.319316 7.687109 0.052020 0.988483 0.142112 0.864584 0.380869
-0.390307 -0.590633 9.492319 -0.860048 0.211247 0.464428 0.154461 0.988962
-0.390307 -0.590633 9.492319 0.627147 -0.767577 -0.132333 0.545674 0.007616
-0.390307 -0.590633 9.492319 0.039602 0.988856 -0.143509 0.918541 0.198444
0.251631 0.310921 7.286084 0.026280 0.977769 -0.208031 0.037701 0.751140
0.142779 0.272040 7.210238 -0.903096 0.140462 0.405819 0.052280 0.743947
0.306011 0.469643 7.987494 -0.855872 0.514849 -0.049131 0.009020 0.820914
0.372916 0.497193 8.010970 -0.006003 0.995123 0.098464 0.000000 0.822919
0.357395 0.282630 7.333322 0.594210 0.750457 -0.289360 0.734121 0.192717
0.420439 0.197663 7.337319 0.931660 0.286843 -0.223006 0.747635 0.192492
-0.399339 0.044713 6.326036 -0.583067 0.739627 0.336131 0.861918 0.541708
0.031023 -0.380513 6.392481 0.550783 -0.795666 0.252098 0.791033 0.529076
0.359851 0.000272 7.331100 0.046425 -0.936394 0.347865 0.777663 0.431986
0.142779 0.272040 7.210238 -0.903096 0.140462 0.405819 0.814786 0.447634
0.420439 0.197663 7.337319 0.931660 0.286843 -0.223006 0.445224 0.756680
0.251631 0.310921 7.286084 0.026280 0.977769 -0.208031 0.720812 0.197771
0.425367 0.245645 8.050447 -0.066849 -0.974295 0.215128 0.939764 0.711163
0.372916 0.497193 8.010970 -0.006003 0.995123 0.098464 0.913342 0.711163
0.132606 0.284778 8.682848 0.422948 0.874052 0.239056 0.919433 0.643505
0.170155 0.148670 8.693684 0.320090 -0.944976 0.067545 0.934458 0.644663
0.483033 0.399015 8.001356 0.928884 0.293667 -0.225684 0.470672 0.825556
0.479102 0.312647 8.006848 0.941233 -0.316929 -0.116776 0.460599 0.825996
0.372916 0.497193 8.010970 -0.006003 0.995123 0.098464 0.718466 0.121899
0.441792 0.469660 8.002234 0.555586 0.810612 -0.185021 0.727860 0.122717
0.425367 0.245645 8.050447 -0.066849 -0.974295 0.215128 0.788686 0.358864
0.306011 0.469643 7.987494 -0.855872 0.514849 -0.049131 0.812307 0.367506
0.425367 0.245645 8.050447 -0.066849 -0.974295 0.215128 0.449241 0.830324
0.483033 0.399015 8.001356 0.928884 0.293667 -0.225684 0.737936 0.122995
0.663133 0.319639 8.613797 0.916779 -0.340065 -0.209455 0.472410 0.888881
0.627428 0.262028 8.615896 -0.132391 -0.974272 0.182390 0.463445 0.888967
0.796130 0.435920 9.184394 0.940382 -0.301308 -0.157784 0.493230 0.948097
0.372916 0.497193 8.010970 -0.006003 0.995123 0.098464 0.839318 0.612585
0.425367 0.245645 8.050447 -0.066849 -0.974295 0.215128 0.859877 0.614359
0.627428 0.262028 8.615896 -0.132391 -0.974272 0.182390 0.859877 0.675650
0.580661 0.418251 8.603920 -0.699574 0.648152 0.300823 0.848754 0.675455
0.634229 0.417571 8.606396 0.503080 0.853925 -0.133125 0.752401 0.060120
0.665731 0.378739 8.610168 0.932029 0.257453 -0.255029 0.758857 0.059809
0.665731 0.378739 8.610168 0.932029 0.257453 -0.255029 0.479296 0.888593
0.580661 0.418251 8.603920 -0.699574 0.648152 0.300823 0.746793 0.060530
0.796130 0.435920 9.184394 0.433879 0.888441 -0.149738 0.767978 0.000000
0.580661 0.418251 8.603920 -0.699574 0.648152 0.300823 0.871110 0.675661
0.627428 0.262028 8.615896 -0.132391 -0.974272 0.182390 0.859877 0.671021
0.796130 0.435920 9.184394 -0.075268 -0.947086 0.312030 0.871110 0.612585
0.013874 0.297679 9.670178 0.486616 0.872344 0.047120 0.926413 0.541708
0.170155 0.148670 8.693684 0.320090 -0.944976 0.067545 0.824212 0.294374
0.088301 0.272445 8.681454 -0.951674 0.257307 -0.167660 0.839522 0.296965
0.088301 0.272445 8.681454 -0.951674 0.257307 -0.167660 0.039016 0.894637
0.132606 0.284778 8.682848 0.422948 0.874052 0.239056 0.033778 0.894591
0.013874 0.297679 9.670178 0.396680 -0.895862 0.200190 0.861918 0.196152
0.013874 0.297679 9.670178 -0.934249 0.347716 -0.079200 0.031201 0.995621
4 0 1 2 3
4 3 2 4 5
4 6 7 8 9
4 9 8 10 11
4 11 10 12 13
4 14 15 16 17
4 17 16 18 19
4 20 21 22 23
4 24 25 26 27
4 23 22 25 28
4 28 25 24 29
4 17 19 30 31
4 31 30 32 33
4 14 17 31 34
4 11 13 35 36
4 9 11 36 37
4 0 3 38 39
4 6 9 37 40
4 3 5 41 38
4 28 29 42 43
4 23 28 43 44
4 20 23 44 45
10 46 47 48 49 50 51 52 53 54 55
4 37 36 56 57
4 39 38 58 59
4 45 44 60 61
4 36 35 62 56
4 38 41 63 58
4 44 43 64 60
4 34 31 33 65
4 40 37 57 66
4 43 42 67 64
4 68 69 70 71
4 25 22 72 26
4 22 21 73 72
4 18 16 74 75
4 16 15 76 74
4 15 77 78 76
4 10 8 79 80
4 2 1 69 68
4 8 7 81 79
4 4 2 68 82
4 83 84 85 86
4 72 73 84 83
4 76 78 87 88
4 82 68 71 89
4 26 72 83 90
4 74 76 88 91
4 79 81 92 93
4 27 26 90 94
4 75 74 91 95
4 80 79 93 96
4 97 86 98 99
4 88 87 100 101
4 89 71 102 103
4 90 83 86 97
4 91 88 101 104
4 105 106 107 108
4 94 90 97 109
4 95 91 104 110
4 96 93 111 112
4 71 70 113 102
4 114 115 116 117
4 104 101 115 114
4 111 118 119 120
4 109 97 99 121
4 110 104 114 122
4 112 111 120 123
4 102 113 124 125
4 86 85 126 98
4 101 100 127 115
4 103 102 125 128
4 129 130 131 132
4 120 119 133 134
4 121 99 135 136
4 122 114 117 137
4 123 120 134 138
4 125 124 139 140
4 98 126 130 129
4 115 127 141 116
4 128 125 140 142
4 99 98 129 135
4 143 144 145 146
4 93 92 147 148
4 89 103 149 150
4 151 152 146 145
4 138 134 153 154
4 155 156 157 158
4 117 116 159 160
4 135 129 132 161
4 162 163 164 165
4 137 117 160 166
4 116 141 167 159
4 168 169 170 170
4 171 172 173 174
4 132 131 175 176
4 160 159 177 178
4 161 132 176 179
4 166 160 178 180
3 181 182 183
5 184 184 184 184 184
4 185 186 187 187
4 169 188 170 170
4 189 190 191 191
4 186 192 187 187
4 178 177 192 186
4 193 194 190 189
4 176 175 188 169
4 180 178 186 185
4 179 176 169 168
4 168 169 195 195
4 169 188 195 195
4 186 192 196 196
4 185 186 196 196
4 189 190 197 197
4 198 199 200 201
4 142 140 202 203
4 204 205 206 207
4 134 133 208 153
4 140 139 209 202
4 136 135 199 198
4 210 211 212 213
4 153 208 214 215
4 202 209 216 217
4 207 206 218 219
4 154 153 215 220
4 203 202 217 221
4 220 215 222 223
4 223 222 224 224
4 225 226 227 228
4 221 217 229 230
4 215 214 231 222
4 217 216 232 229
5 184 184 184 184 184
4 230 229 233 233
4 234 235 236 236
4 222 231 224 224
4 229 232 233 233
4 213 212 237 237
4 219 218 238 239
4 201 200 240 241
3 184 184 184
4 239 238 242 242
4 241 240 243 243
