ply
format ascii 1.0
comment Created by Blender 3.3.1 - www.blender.org
element vertex 325
property float x
property float y
property float z
property float nx
property float ny
property float nz
property float s
property float t
element face 1146
property list uchar uint vertex_indices
end_header
-0.605786 -0.564237 9.123993 0.396125 -0.841612 0.367115 0.515954 0.757809
-1.623554 -1.011500 8.717823 0.397820 -0.870757 0.289000 0.751838 0.734695
-0.773420 -0.756857 8.695621 0.298480 -0.908714 0.291803 0.605724 0.855850
-2.416242 -0.839004 10.404662 -0.024217 -0.628431 0.777488 0.637123 0.182917
-2.564235 -1.322504 10.086491 0.454344 -0.782373 0.425985 0.761277 0.250477
-1.805032 -0.565106 10.645087 0.417655 -0.673011 0.610427 0.515954 0.247376
-2.085532 -1.213018 9.352097 0.506114 -0.816882 0.276680 0.763602 0.502592
-1.252586 -0.481869 9.764292 0.481582 -0.808864 0.337370 0.515954 0.502592
-0.161147 1.439701 10.557106 0.528388 -0.362556 0.767697 0.009807 0.502592
-0.487214 0.319192 10.418438 0.492982 -0.534139 0.686778 0.262881 0.502592
0.169505 0.187733 9.754034 0.491117 -0.654671 0.574639 0.262881 0.757809
0.660245 1.296960 10.061423 0.497621 -0.372579 0.783300 0.009807 0.757809
-0.795506 1.490934 11.199647 0.491523 -0.405294 0.770805 0.001856 0.227957
-1.285654 0.616238 10.914315 0.451162 -0.408472 0.793475 0.262881 0.247376
-1.402297 1.092991 11.275017 0.431737 -0.474669 0.767002 0.123943 0.112972
-1.753516 0.389505 11.074100 0.427567 -0.406480 0.807441 0.333601 0.139326
-2.618473 -0.287693 11.151527 0.297456 -0.576653 0.760914 0.540757 -0.003190
0.583506 0.114527 8.915895 0.510712 -0.779717 0.362235 0.293086 0.999734
0.955911 0.620766 9.562744 0.484682 -0.598375 0.637990 0.123467 0.934359
0.023346 -0.525323 8.518450 0.463998 -0.809221 0.360372 0.485012 0.994534
0.041989 0.855429 0.548866 0.031687 0.881554 0.471019 0.871253 0.078713
0.063564 0.299207 2.555449 0.073531 0.991377 0.108470 0.866735 0.206598
0.663316 -0.034587 2.489884 0.834060 0.547110 0.070810 0.835609 0.205825
0.641742 0.515257 0.548122 0.791529 0.488143 0.367693 0.840229 0.082031
0.641742 0.515257 0.548122 0.791529 0.488143 0.367693 0.873376 0.566224
0.663316 -0.034587 2.489884 0.834060 0.547110 0.070810 0.870876 0.446985
0.771701 -0.544531 2.483140 0.957256 -0.288373 0.022422 0.893735 0.439418
0.750126 -0.246750 0.780438 0.970085 -0.175216 0.168030 0.904637 0.540929
0.307102 -1.050268 2.612031 0.377567 -0.924957 0.043566 0.921020 0.421847
0.285527 -0.877444 0.857151 0.457348 -0.862753 0.215616 0.938561 0.524264
0.285527 -0.877444 0.857151 0.457348 -0.862753 0.215616 0.979295 0.111785
0.307102 -1.050268 2.612031 0.377567 -0.924957 0.043566 0.984861 0.220557
-0.380628 -1.007659 2.637179 -0.487681 -0.871540 0.050841 0.953890 0.225029
-0.402203 -0.830823 0.873717 -0.508962 -0.826509 0.240501 0.948303 0.115743
-0.402203 -0.830823 0.873717 -0.508962 -0.826509 0.240501 0.894285 0.766573
-0.380628 -1.007659 2.637179 -0.487681 -0.871540 0.050841 0.887937 0.650757
-0.773615 -0.448790 2.539649 -0.987857 -0.149656 0.041741 0.903510 0.658213
-0.795189 -0.141994 0.817664 -0.953682 -0.083850 0.288894 0.914522 0.771362
0.573817 -0.148646 5.321680 0.946096 -0.320520 0.046587 0.836241 0.283918
0.230042 -0.510107 5.428744 0.486536 -0.869616 0.083968 0.855661 0.270464
-0.575931 0.042191 2.535200 -0.736510 0.671120 0.084566 0.923431 0.658298
-0.597505 0.599265 0.577974 -0.637807 0.656136 0.403345 0.943469 0.786986
-0.597505 0.599265 0.577974 -0.637807 0.656136 0.403345 0.892713 0.078981
-0.575931 0.042191 2.535200 -0.736510 0.671120 0.084566 0.888009 0.203771
0.321324 1.593986 -0.312604 0.123388 0.939176 -0.320505 0.946981 0.445539
0.987104 1.011854 -0.312605 0.748130 0.530183 -0.399008 0.983568 0.467331
1.039209 -0.291631 -0.312604 0.850720 -0.102336 -0.515561 1.003711 0.544190
0.605493 -1.692809 -0.462303 0.434992 -0.801213 -0.410902 1.003711 0.635753
-0.539340 -1.588851 -0.462303 -0.400559 -0.797315 -0.451488 0.953122 0.651875
-1.521194 -0.376687 -0.312604 -0.914391 -0.130946 -0.383068 0.894931 0.599220
-1.091062 0.870093 -0.312604 -0.665128 0.627800 -0.404318 0.896275 0.516341
-1.091062 0.870093 -0.312604 -0.665128 0.627800 -0.404318 0.947641 0.846561
0.041989 0.855429 0.548866 0.031687 0.881554 0.471019 0.960042 0.787664
0.321324 1.593986 -0.312604 0.123388 0.939176 -0.320505 0.989917 0.843910
-1.521194 -0.376687 -0.312604 -0.914391 -0.130946 -0.383068 0.897884 0.846935
-0.539340 -1.588851 -0.462303 -0.400559 -0.797315 -0.451488 0.937828 0.028268
-0.795189 -0.141994 0.817664 -0.953682 -0.083850 0.288894 0.931000 0.117723
-1.521194 -0.376687 -0.312604 -0.914391 -0.130946 -0.383068 0.894931 0.048417
0.605493 -1.692809 -0.462303 0.434992 -0.801213 -0.410902 0.989469 0.023253
1.039209 -0.291631 -0.312604 0.850720 -0.102336 -0.515561 0.919263 0.603459
0.605493 -1.692809 -0.462303 0.434992 -0.801213 -0.410902 0.992386 0.587090
0.987104 1.011854 -0.312605 0.748130 0.530183 -0.399008 0.858497 0.624712
0.321324 1.593986 -0.312604 0.123388 0.939176 -0.320505 0.870826 0.023253
0.987104 1.011854 -0.312605 0.748130 0.530183 -0.399008 0.832518 0.027658
0.049838 0.434614 5.138928 0.013480 0.985298 -0.170310 0.878741 0.368304
-0.423348 0.254179 5.200856 -0.736463 0.676471 -0.003116 0.894931 0.371009
0.235605 1.002635 7.542715 -0.740208 0.672372 0.002670 0.889984 0.519714
0.599212 1.170948 7.571361 0.048671 0.968647 -0.243629 0.878282 0.522724
-0.569622 -0.067016 5.331851 -0.981655 -0.099078 0.162899 0.919196 0.474758
-0.423348 0.254179 5.200856 -0.736463 0.676471 -0.003116 0.932441 0.483182
0.230042 -0.510107 5.428744 0.486536 -0.869616 0.083968 0.989469 0.400290
-0.278836 -0.473778 5.433271 -0.609424 -0.792818 -0.006476 0.966518 0.402746
0.493619 0.188717 5.192699 0.800907 0.575807 -0.164300 0.823151 0.296468
-0.278836 -0.473778 5.433271 -0.609424 -0.792818 -0.006476 0.907913 0.467325
0.493619 0.188717 5.192699 0.800907 0.575807 -0.164300 0.856082 0.374151
0.505813 1.297673 8.684740 -0.740213 0.671258 0.038688 0.979136 0.251501
0.441316 0.974007 8.675348 -0.944590 -0.195588 0.263618 0.966954 0.253074
0.665853 1.171983 9.836184 -0.944809 -0.283294 0.164562 0.976293 0.178514
0.700930 1.354520 9.782851 -0.766027 0.639277 0.067291 0.983285 0.181501
-0.248164 -0.106240 6.516671 -0.838346 0.043757 0.543380 0.921327 0.396342
0.805436 0.213252 6.468075 0.774258 -0.606441 -0.180983 0.827538 0.679209
1.037879 0.577724 7.610984 0.722720 -0.597666 0.347089 0.866445 0.733707
0.783798 0.387010 7.676755 0.348115 -0.904289 0.247137 0.856017 0.743405
0.724941 0.659193 6.398745 0.570799 0.630751 -0.525682 0.859577 0.449821
0.956383 0.979739 7.605451 0.580793 0.813555 -0.028401 0.860238 0.525981
0.139919 0.603944 7.536826 -0.954014 0.007813 0.299662 0.950872 0.328300
0.235605 1.002635 7.542715 -0.740208 0.672372 0.002670 0.965989 0.326791
-0.248164 -0.106240 6.516671 -0.838346 0.043757 0.543380 0.780997 0.710183
0.206823 -0.137569 6.508465 0.533486 -0.725246 0.435213 0.800916 0.696712
0.384234 0.398248 7.644423 -0.471879 -0.765513 0.437402 0.837503 0.753218
1.827330 0.994210 7.424290 0.100712 0.802094 0.588645 0.824291 0.517019
1.731603 0.863593 6.921651 0.122640 0.639298 -0.759116 0.824017 0.485502
0.950298 1.148558 10.938959 0.312475 -0.835200 0.452548 0.915632 0.711689
1.030167 1.221788 10.923441 0.807004 -0.106964 0.580778 0.911502 0.711605
0.647867 1.073817 11.948891 0.542957 -0.159622 0.824451 0.928169 0.652199
0.621932 1.032447 11.943189 0.184269 -0.748880 0.636572 0.930126 0.653161
0.737426 0.815109 9.250392 -0.698285 -0.397470 0.595328 0.891673 0.828220
1.015329 0.817488 9.305196 0.537206 -0.294041 0.790537 0.905476 0.823112
1.065176 1.091578 9.953162 0.408858 -0.895243 0.177132 0.923533 0.856180
0.827351 1.083984 9.892037 -0.345246 -0.912344 0.220078 0.911301 0.859719
1.156496 0.965951 8.786526 0.988731 -0.030352 -0.146593 0.907936 0.844051
1.079864 1.289448 8.776980 0.745491 0.647775 -0.156940 0.894931 0.841437
1.130064 1.366628 9.896393 0.730959 0.682272 0.014294 0.897570 0.772657
1.200509 1.188410 9.974771 0.978474 -0.176531 0.106893 0.905004 0.769372
0.790960 1.381723 8.732309 0.025062 0.990779 -0.133152 0.878681 0.595213
0.505813 1.297673 8.684740 -0.740213 0.671258 0.038688 0.888686 0.591394
0.700930 1.354520 9.782851 -0.766027 0.639277 0.067291 0.886164 0.658517
0.907765 1.469143 9.841691 -0.014988 0.999848 0.008958 0.879944 0.662785
0.441316 0.974007 8.675348 -0.944590 -0.195588 0.263618 0.866101 0.808255
0.645191 0.712988 8.704241 -0.622792 -0.781701 0.032766 0.874791 0.802354
1.065176 1.091578 9.953162 0.408858 -0.895243 0.177132 0.910635 0.771959
1.015329 0.817488 9.305196 0.537206 -0.294041 0.790537 0.919090 0.814085
1.079864 1.289448 8.776980 0.745491 0.647775 -0.156940 0.865291 0.598855
1.130064 1.366628 9.896393 0.730959 0.682272 0.014294 0.869119 0.667173
-0.102212 -0.840891 6.127333 0.582725 -0.776155 -0.240864 0.864933 0.223969
-0.102026 -0.620786 6.886433 0.817260 0.101886 0.567190 0.843591 0.184507
-0.408831 -0.915751 7.153411 0.717071 -0.656167 0.235061 0.857136 0.163203
-0.431262 -1.196456 6.763074 0.764500 -0.612474 0.201038 0.876229 0.180664
0.384234 0.398248 7.644423 -0.471879 -0.765513 0.437402 0.946396 0.321056
0.206823 -0.137569 6.508465 0.533486 -0.725246 0.435213 0.822744 0.215186
-0.408831 -0.915751 7.153411 0.717071 -0.656167 0.235061 0.963343 0.854257
-0.584123 -0.897191 7.168379 -0.886127 0.297902 0.355012 0.955470 0.852980
-0.977839 -2.464379 8.044270 -0.527471 0.401706 0.748603 0.954742 0.751475
-0.901529 -2.409014 8.005322 0.756617 0.152597 0.635803 0.957510 0.755673
-0.584123 -0.897191 7.168379 -0.886127 0.297902 0.355012 0.949271 0.897827
-0.408831 -0.915751 7.153411 0.717071 -0.656167 0.235061 0.941307 0.897827
-0.337840 -0.969172 7.917799 0.362944 -0.905081 -0.221585 0.942099 0.850334
-0.389882 -0.961784 7.921462 -0.922818 -0.385230 -0.002195 0.944452 0.850375
-0.416814 -0.595810 6.897875 -0.646202 0.721243 0.249461 0.901715 0.371500
-0.454736 -0.811942 6.137212 -0.823861 -0.197795 -0.531159 0.893639 0.421367
-0.627274 -1.174974 6.778161 -0.983217 -0.097869 -0.153969 0.878525 0.379532
-0.584123 -0.897191 7.168379 -0.886127 0.297902 0.355012 0.888911 0.353972
-0.513655 -1.740761 6.488739 0.583917 -0.474591 0.658638 0.906767 0.186950
-0.421742 -1.336084 6.404386 0.704959 -0.332131 -0.626676 0.887901 0.198783
-0.977839 -2.464379 8.044270 -0.527471 0.401706 0.748603 0.829098 0.297728
-1.030413 -2.469802 7.840384 -0.863222 -0.131046 -0.487518 0.828236 0.311005
-1.193592 -4.217199 8.618745 -0.772100 -0.617614 -0.149715 0.769700 0.265984
-1.176856 -4.190927 8.674932 -0.475027 -0.177746 0.861833 0.770782 0.262276
-0.901529 -2.409014 8.005322 0.756617 0.152597 0.635803 0.919611 0.089353
-0.944638 -2.492388 7.826845 0.549516 -0.535199 -0.641556 0.926536 0.097933
-0.627274 -1.174974 6.778161 -0.983217 -0.097869 -0.153969 0.932511 0.653306
-0.431262 -1.196456 6.763074 0.764500 -0.612474 0.201038 0.941307 0.651875
-0.944638 -2.492388 7.826845 0.549516 -0.535199 -0.641556 0.934058 0.741404
-1.030413 -2.469802 7.840384 -0.863222 -0.131046 -0.487518 0.930126 0.741200
-1.193592 -4.217199 8.618745 -0.772100 -0.617614 -0.149715 0.894505 0.846936
-1.166143 -4.223565 8.613903 0.343140 -0.866536 -0.362450 0.895537 0.847001
-1.152319 -4.198517 8.671565 0.606034 -0.456142 0.651657 0.895537 0.850937
-1.176856 -4.190927 8.674932 -0.475027 -0.177746 0.861833 0.894614 0.850894
-1.166143 -4.223565 8.613903 0.343140 -0.866536 -0.362450 0.941307 0.843073
-1.193592 -4.217199 8.618745 -0.772100 -0.617614 -0.149715 0.940061 0.843009
-1.176856 -4.190927 8.674932 -0.475027 -0.177746 0.861833 0.962225 0.651942
-1.152319 -4.198517 8.671565 0.606034 -0.456142 0.651657 0.963343 0.651875
-1.152319 -4.198517 8.671565 0.606034 -0.456142 0.651657 0.990190 0.029428
-1.166143 -4.223565 8.613903 0.343140 -0.866536 -0.362450 0.992386 0.032149
-0.102212 -0.840891 6.127333 0.582725 -0.776155 -0.240864 0.976052 0.443394
-0.454736 -0.811942 6.137212 -0.823861 -0.197795 -0.531159 0.960175 0.445539
0.206823 -0.137569 6.508465 0.533486 -0.725246 0.435213 0.871875 0.790575
-0.248164 -0.106240 6.516671 -0.838346 0.043757 0.543380 0.891963 0.796859
-0.416814 -0.595810 6.897875 -0.646202 0.721243 0.249461 0.891963 0.830194
-0.102026 -0.620786 6.886433 0.817260 0.101886 0.567190 0.878025 0.826026
-0.586579 -2.502818 5.961031 0.420784 -0.896423 0.139165 0.950932 0.204344
-0.564593 -2.476635 5.917660 0.630703 -0.283500 -0.722386 0.950124 0.207253
-0.454736 -0.811942 6.137212 -0.823861 -0.197795 -0.531159 0.971563 0.753012
-0.102212 -0.840891 6.127333 0.582725 -0.776155 -0.240864 0.988961 0.748576
-0.421742 -1.336084 6.404386 0.704959 -0.332131 -0.626676 0.981833 0.783165
-0.516828 -1.327682 6.406628 -0.683789 -0.003057 -0.729674 0.977127 0.784326
-0.431262 -1.196456 6.763074 0.764500 -0.612474 0.201038 0.851799 0.930630
-0.627274 -1.174974 6.778161 -0.983217 -0.097869 -0.153969 0.844402 0.930630
-0.566569 -1.734875 6.492719 -0.731641 -0.346100 0.587296 0.848258 0.895335
-0.513655 -1.740761 6.488739 0.583917 -0.474591 0.658638 0.850256 0.895329
-0.516828 -1.327682 6.406628 -0.683789 -0.003057 -0.729674 0.874360 0.403628
-0.566569 -1.734875 6.492719 -0.731641 -0.346100 0.587296 0.859155 0.397909
-0.587151 -2.474769 5.918372 -0.567686 -0.202767 -0.797883 0.895537 0.847699
-0.564593 -2.476635 5.917660 0.630703 -0.283500 -0.722386 0.896266 0.846936
-0.586579 -2.502818 5.961031 0.420784 -0.896423 0.139165 0.896266 0.849941
-0.599137 -2.501511 5.962046 -0.667057 -0.722205 0.182906 0.895873 0.850405
-0.599137 -2.501511 5.962046 -0.667057 -0.722205 0.182906 0.848808 0.846937
-0.586579 -2.502818 5.961031 0.420784 -0.896423 0.139165 0.849282 0.846936
-0.564593 -2.476635 5.917660 0.630703 -0.283500 -0.722386 0.988961 0.847995
-0.587151 -2.474769 5.918372 -0.567686 -0.202767 -0.797883 0.987845 0.848270
-0.587151 -2.474769 5.918372 -0.567686 -0.202767 -0.797883 0.832556 0.435493
-0.599137 -2.501511 5.962046 -0.667057 -0.722205 0.182906 0.831497 0.432697
-0.337840 -0.969172 7.917799 0.362944 -0.905081 -0.221585 0.847874 0.119417
-0.223273 -0.856362 8.047909 0.895368 0.400550 0.194617 0.839450 0.114414
-0.290275 -1.436118 9.020495 0.702567 -0.113310 0.702538 0.853357 0.050994
-0.329565 -1.473906 8.975057 0.281300 -0.957965 0.056336 0.856204 0.052685
-0.102026 -0.620786 6.886433 0.817260 0.101886 0.567190 0.954742 0.785630
-0.416814 -0.595810 6.897875 -0.646202 0.721243 0.249461 0.941307 0.785786
-0.315874 -0.838953 8.051314 -0.419841 0.837216 0.350433 0.946247 0.712747
-0.223273 -0.856362 8.047909 0.895368 0.400550 0.194617 0.950369 0.712671
-0.389882 -0.961784 7.921462 -0.922818 -0.385230 -0.002195 0.888640 0.304440
-0.315874 -0.838953 8.051314 -0.419841 0.837216 0.350433 0.893828 0.295916
-0.290275 -1.436118 9.020495 0.702567 -0.113310 0.702538 0.946144 0.785786
-0.321847 -1.430032 9.021585 -0.409138 0.198415 0.890639 0.947553 0.785868
-0.347303 -1.471355 8.976326 -0.761444 -0.609169 0.221622 0.948465 0.788966
-0.329565 -1.473906 8.975057 0.281300 -0.957965 0.056336 0.947670 0.788951
-0.347303 -1.471355 8.976326 -0.761444 -0.609169 0.221622 0.870892 0.236682
-0.321847 -1.430032 9.021585 -0.409138 0.198415 0.890639 0.872645 0.233800
-0.321847 -1.430032 9.021585 -0.409138 0.198415 0.890639 0.953349 0.651901
-0.290275 -1.436118 9.020495 0.702567 -0.113310 0.702538 0.954742 0.651875
0.783798 0.387010 7.676755 0.348115 -0.904289 0.247137 0.930126 0.918825
1.037879 0.577724 7.610984 0.722720 -0.597666 0.347089 0.918734 0.920727
0.963238 0.710206 8.752455 0.420145 -0.818807 -0.391194 0.920901 0.848973
0.139919 0.603944 7.536826 -0.954014 0.007813 0.299662 0.824843 0.755756
0.956383 0.979739 7.605451 0.580793 0.813555 -0.028401 0.902480 0.917151
0.963238 0.710206 8.752455 0.420145 -0.818807 -0.391194 0.890165 0.795678
0.633515 1.123986 11.945257 0.355828 0.496229 0.791924 0.887430 0.853253
0.589665 1.145201 11.934942 -0.191169 0.723014 0.663856 0.886633 0.850386
0.549312 1.121684 11.925503 -0.748845 0.422992 0.510205 0.887430 0.847575
0.542871 1.071032 11.924225 -0.819369 -0.307058 0.484097 0.889223 0.846936
0.575207 1.031238 11.932199 -0.361780 -0.788361 0.497596 0.890660 0.848950
0.621932 1.032447 11.943189 0.184269 -0.748880 0.636572 0.890660 0.852101
0.647867 1.073817 11.948891 0.542957 -0.159622 0.824451 0.889223 0.854016
0.988472 1.312038 10.912508 0.497444 0.659500 0.563569 0.877810 0.729065
0.855534 1.373219 10.883046 -0.117043 0.887935 0.444829 0.884287 0.726439
0.589665 1.145201 11.934942 -0.191169 0.723014 0.663856 0.894931 0.789713
0.633515 1.123986 11.945257 0.355828 0.496229 0.791924 0.892803 0.790575
0.732641 1.303622 10.850118 -0.754766 0.564664 0.333891 0.981262 0.113394
0.711226 1.211645 10.845541 -0.922117 -0.290229 0.255865 0.977710 0.113879
0.542871 1.071032 11.924225 -0.819369 -0.307058 0.484097 0.970433 0.045998
0.549312 1.121684 11.925503 -0.748845 0.422992 0.510205 0.972251 0.045676
0.808403 1.144227 10.904259 -0.347967 -0.878968 0.326090 0.933757 0.912125
0.950298 1.148558 10.938959 0.312475 -0.835200 0.452548 0.941075 0.910007
0.621932 1.032447 11.943189 0.184269 -0.748880 0.636572 0.948723 0.969121
0.575207 1.031238 11.932199 -0.361780 -0.788361 0.497596 0.946319 0.969817
0.988472 1.312038 10.912508 0.497444 0.659500 0.563569 0.908020 0.711555
0.633515 1.123986 11.945257 0.355828 0.496229 0.791924 0.926251 0.651875
0.855534 1.373219 10.883046 -0.117043 0.887935 0.444829 0.985230 0.110746
0.589665 1.145201 11.934942 -0.191169 0.723014 0.663856 0.973554 0.044806
0.711226 1.211645 10.845541 -0.922117 -0.290229 0.255865 0.928289 0.912171
0.542871 1.071032 11.924225 -0.819369 -0.307058 0.484097 0.944878 0.970572
0.724941 0.659193 6.398745 0.570799 0.630751 -0.525682 0.780997 0.236039
0.805436 0.213252 6.468075 0.774258 -0.606441 -0.180983 0.799935 0.225700
1.764914 0.679113 6.950238 0.412539 -0.775055 -0.478645 0.960507 0.687078
1.731603 0.863593 6.921651 0.122640 0.639298 -0.759116 0.969959 0.687078
3.068613 1.000427 7.004712 0.450154 0.532885 -0.716516 0.964257 0.766615
3.079019 0.943106 7.013127 0.634080 -0.600429 -0.487266 0.961304 0.766615
0.956383 0.979739 7.605451 0.580793 0.813555 -0.028401 0.991838 0.748576
1.037879 0.577724 7.610984 0.722720 -0.597666 0.347089 0.971563 0.748576
1.860764 0.829156 7.424180 0.287191 -0.543478 0.788767 0.976446 0.698313
1.827330 0.994210 7.424290 0.100712 0.802094 0.588645 0.984836 0.698313
0.805436 0.213252 6.468075 0.774258 -0.606441 -0.180983 0.948723 0.624712
0.724941 0.659193 6.398745 0.570799 0.630751 -0.525682 0.971563 0.624712
1.764914 0.679113 6.950238 0.412539 -0.775055 -0.478645 0.883106 0.679123
1.860764 0.829156 7.424180 0.287191 -0.543478 0.788767 0.899207 0.701675
3.079019 0.943106 7.013127 0.634080 -0.600429 -0.487266 0.989165 0.748576
3.068613 1.000427 7.004712 0.450154 0.532885 -0.716516 0.991838 0.749028
3.098517 1.041088 7.161973 0.588018 0.707433 0.392139 0.991838 0.758744
3.108961 0.989855 7.161390 0.789791 -0.372042 0.487663 0.989577 0.757886
3.079019 0.943106 7.013127 0.634080 -0.600429 -0.487266 0.943694 0.646194
3.108961 0.989855 7.161390 0.789791 -0.372042 0.487663 0.948723 0.653240
3.098517 1.041088 7.161973 0.588018 0.707433 0.392139 0.772217 0.504840
3.068613 1.000427 7.004712 0.450154 0.532885 -0.716516 0.772131 0.494995
3.108961 0.989855 7.161390 0.789791 -0.372042 0.487663 0.972822 0.624712
3.098517 1.041088 7.161973 0.588018 0.707433 0.392139 0.975443 0.624712
0.737426 0.815109 9.250392 -0.698285 -0.397470 0.595328 0.847206 0.790575
0.645191 0.712988 8.704241 -0.622792 -0.781701 0.032766 0.871875 0.795604
0.391461 0.065839 8.987807 -0.513770 0.144187 -0.845725 0.862294 0.840510
0.390370 0.060994 9.181124 -0.739859 0.235151 0.630327 0.853809 0.841869
1.015329 0.817488 9.305196 0.537206 -0.294041 0.790537 0.769700 0.906638
0.737426 0.815109 9.250392 -0.698285 -0.397470 0.595328 0.770880 0.888139
1.356750 0.219914 9.489940 -0.328432 -0.185289 0.926175 0.790955 0.932896
1.481411 0.223863 9.488632 0.511972 0.331142 0.792609 0.790308 0.941153
0.665853 1.171983 9.836184 -0.944809 -0.283294 0.164562 0.903108 0.861880
0.573817 -0.148646 5.321680 0.946096 -0.320520 0.046587 0.788631 0.624712
1.270448 0.232475 9.255632 0.053520 -0.763099 -0.644062 0.806025 0.832891
1.411695 0.235956 9.247347 0.236825 -0.249533 -0.938961 0.805078 0.823972
1.814943 -0.749702 9.389597 0.336562 -0.649852 -0.681482 0.846829 0.792523
1.758945 -0.752434 9.394320 -0.524788 -0.719229 -0.455311 0.847206 0.796072
1.794268 -0.761535 9.491153 -0.315459 -0.707519 0.632379 0.825142 0.966823
1.844017 -0.758890 9.489831 0.649240 -0.534941 0.540672 0.824885 0.970110
0.645191 0.712988 8.704241 -0.622792 -0.781701 0.032766 0.785873 0.877070
0.963238 0.710206 8.752455 0.420145 -0.818807 -0.391194 0.784397 0.856813
1.156496 0.965951 8.786526 0.988731 -0.030352 -0.146593 0.772131 0.845960
1.496585 0.346552 9.274711 0.904215 0.335990 -0.263640 0.799772 0.819080
1.156496 0.965951 8.786526 0.988731 -0.030352 -0.146593 0.825142 0.846936
1.015329 0.817488 9.305196 0.537206 -0.294041 0.790537 0.844402 0.851001
1.481411 0.223863 9.488632 0.511972 0.331142 0.792609 0.844402 0.896330
1.496585 0.346552 9.274711 0.904215 0.335990 -0.263640 0.837030 0.890602
1.758945 -0.752434 9.394320 -0.524788 -0.719229 -0.455311 0.890660 0.846936
1.814943 -0.749702 9.389597 0.336562 -0.649852 -0.681482 0.892768 0.847778
1.844017 -0.758890 9.489831 0.649240 -0.534941 0.540672 0.892768 0.854163
1.794268 -0.761535 9.491153 -0.315459 -0.707519 0.632379 0.890932 0.853256
1.814943 -0.749702 9.389597 0.336562 -0.649852 -0.681482 0.859197 0.847427
1.848708 -0.704253 9.399468 0.893358 0.006640 -0.449296 0.858585 0.850696
1.844017 -0.758890 9.489831 0.649240 -0.534941 0.540672 0.855641 0.846936
1.356750 0.219914 9.489940 -0.328432 -0.185289 0.926175 0.868002 0.898032
1.270448 0.232475 9.255632 0.053520 -0.763099 -0.644062 0.859197 0.898032
1.758945 -0.752434 9.394320 -0.524788 -0.719229 -0.455311 0.862903 0.846936
1.794268 -0.761535 9.491153 -0.315459 -0.707519 0.632379 0.866407 0.846936
1.496585 0.346552 9.274711 0.904215 0.335990 -0.263640 0.859197 0.911613
1.481411 0.223863 9.488632 0.511972 0.331142 0.792609 0.851799 0.902164
1.848708 -0.704253 9.399468 0.893358 0.006640 -0.449296 0.844717 0.790575
0.585416 -0.128067 9.173772 0.573953 -0.579220 -0.578862 0.883729 0.848741
0.602324 -0.149411 9.256818 0.152163 -0.720124 0.676955 0.886633 0.846936
0.080767 -0.590862 8.921040 -0.021851 -0.924503 0.380549 0.886633 0.889032
0.075341 -0.584251 8.894802 0.065873 -0.831630 -0.551410 0.885707 0.889608
0.390370 0.060994 9.181124 -0.739859 0.235151 0.630327 0.800217 0.869184
0.602324 -0.149411 9.256818 0.152163 -0.720124 0.676955 0.807311 0.884317
1.270448 0.232475 9.255632 0.053520 -0.763099 -0.644062 0.868002 0.857016
1.356750 0.219914 9.489940 -0.328432 -0.185289 0.926175 0.875089 0.846936
0.602324 -0.149411 9.256818 0.152163 -0.720124 0.676955 0.875089 0.900633
0.585416 -0.128067 9.173772 0.573953 -0.579220 -0.578862 0.872497 0.903214
0.585416 -0.128067 9.173772 0.573953 -0.579220 -0.578862 0.825417 0.874516
0.391461 0.065839 8.987807 -0.513770 0.144187 -0.845725 0.817075 0.888345
0.012945 -0.523835 8.897089 -0.923263 -0.127456 0.362408 0.892768 0.849440
0.013232 -0.522029 8.835340 -0.555272 -0.139930 -0.819812 0.894506 0.846936
0.075341 -0.584251 8.894802 0.065873 -0.831630 -0.551410 0.894506 0.852076
0.080767 -0.590862 8.921040 -0.021851 -0.924503 0.380549 0.893917 0.853378
0.013232 -0.522029 8.835340 -0.555272 -0.139930 -0.819812 0.871875 0.881901
0.012945 -0.523835 8.897089 -0.923263 -0.127456 0.362408 0.869169 0.882335
0.075341 -0.584251 8.894802 0.065873 -0.831630 -0.551410 0.847206 0.904798
0.013232 -0.522029 8.835340 -0.555272 -0.139930 -0.819812 0.844546 0.909207
0.012945 -0.523835 8.897089 -0.923263 -0.127456 0.362408 0.822880 0.846936
0.080767 -0.590862 8.921040 -0.021851 -0.924503 0.380549 0.825142 0.851761
0.907765 1.469143 9.841691 -0.014988 0.999848 0.008958 0.989917 0.177076
1.200509 1.188410 9.974771 0.978474 -0.176531 0.106893 0.930594 0.853928
1.030167 1.221788 10.923441 0.807004 -0.106964 0.580778 0.944733 0.907413
0.711226 1.211645 10.845541 -0.922117 -0.290229 0.255865 0.875895 0.866331
0.808403 1.144227 10.904259 -0.347967 -0.878968 0.326090 0.875089 0.858568
0.950298 1.148558 10.938959 0.312475 -0.835200 0.452548 0.877491 0.849937
1.030167 1.221788 10.923441 0.807004 -0.106964 0.580778 0.881293 0.846936
0.988472 1.312038 10.912508 0.497444 0.659500 0.563569 0.883728 0.851731
0.855534 1.373219 10.883046 -0.117043 0.887935 0.444829 0.883728 0.861423
0.732641 1.303622 10.850118 -0.754766 0.564664 0.333891 0.879400 0.867284
3 0 1 2
3 3 4 5
4 5 4 6 7
4 7 6 1 0
4 8 9 10 11
4 9 7 0 10
4 12 13 9 8
3 5 7 9
3 14 15 13
4 15 16 5 13
3 10 17 18
4 10 0 19 17
3 13 5 9
3 11 10 18
3 19 0 2
3 12 14 13
3 16 3 5
3 0 1 2
3 3 4 5
4 5 4 6 7
4 7 6 1 0
4 8 9 10 11
4 9 7 0 10
4 12 13 9 8
3 5 7 9
3 14 15 13
4 15 16 5 13
3 10 17 18
4 10 0 19 17
3 13 5 9
3 11 10 18
3 19 0 2
3 12 14 13
3 16 3 5
3 0 1 2
3 3 4 5
4 5 4 6 7
4 7 6 1 0
4 8 9 10 11
4 9 7 0 10
4 12 13 9 8
3 5 7 9
3 14 15 13
4 15 16 5 13
3 10 17 18
4 10 0 19 17
3 13 5 9
3 11 10 18
3 19 0 2
3 12 14 13
3 16 3 5
3 0 1 2
3 3 4 5
4 5 4 6 7
4 7 6 1 0
4 8 9 10 11
4 9 7 0 10
4 12 13 9 8
3 5 7 9
3 14 15 13
4 15 16 5 13
3 10 17 18
4 10 0 19 17
3 13 5 9
3 11 10 18
3 19 0 2
3 12 14 13
3 16 3 5
3 0 1 2
3 3 4 5
4 5 4 6 7
4 7 6 1 0
4 8 9 10 11
4 9 7 0 10
4 12 13 9 8
3 5 7 9
3 14 15 13
4 15 16 5 13
3 10 17 18
4 10 0 19 17
3 13 5 9
3 11 10 18
3 19 0 2
3 12 14 13
3 16 3 5
3 0 1 2
3 3 4 5
4 5 4 6 7
4 7 6 1 0
4 8 9 10 11
4 9 7 0 10
4 12 13 9 8
3 5 7 9
3 14 15 13
4 15 16 5 13
3 10 17 18
4 10 0 19 17
3 13 5 9
3 11 10 18
3 19 0 2
3 12 14 13
3 16 3 5
3 0 1 2
3 3 4 5
4 5 4 6 7
4 7 6 1 0
4 8 9 10 11
4 9 7 0 10
4 12 13 9 8
3 5 7 9
3 14 15 13
4 15 16 5 13
3 10 17 18
4 10 0 19 17
3 13 5 9
3 11 10 18
3 19 0 2
3 12 14 13
3 16 3 5
3 0 1 2
3 3 4 5
4 5 4 6 7
4 7 6 1 0
4 8 9 10 11
4 9 7 0 10
4 12 13 9 8
3 5 7 9
3 14 15 13
4 15 16 5 13
3 10 17 18
4 10 0 19 17
3 13 5 9
3 11 10 18
3 19 0 2
3 12 14 13
3 16 3 5
3 0 1 2
3 3 4 5
4 5 4 6 7
4 7 6 1 0
4 8 9 10 11
4 9 7 0 10
4 12 13 9 8
3 5 7 9
3 14 15 13
4 15 16 5 13
3 10 17 18
4 10 0 19 17
3 13 5 9
3 11 10 18
3 19 0 2
3 12 14 13
3 16 3 5
3 0 1 2
3 3 4 5
4 5 4 6 7
4 7 6 1 0
4 8 9 10 11
4 9 7 0 10
4 12 13 9 8
3 5 7 9
3 14 15 13
4 15 16 5 13
3 10 17 18
4 10 0 19 17
3 13 5 9
3 11 10 18
3 19 0 2
3 12 14 13
3 16 3 5
3 0 1 2
3 3 4 5
4 5 4 6 7
4 7 6 1 0
4 8 9 10 11
4 9 7 0 10
4 12 13 9 8
3 5 7 9
3 14 15 13
4 15 16 5 13
3 10 17 18
4 10 0 19 17
3 13 5 9
3 11 10 18
3 19 0 2
3 12 14 13
3 16 3 5
3 0 1 2
3 3 4 5
4 5 4 6 7
4 7 6 1 0
4 8 9 10 11
4 9 7 0 10
4 12 13 9 8
3 5 7 9
3 14 15 13
4 15 16 5 13
3 10 17 18
4 10 0 19 17
3 13 5 9
3 11 10 18
3 19 0 2
3 12 14 13
3 16 3 5
3 0 1 2
3 3 4 5
4 5 4 6 7
4 7 6 1 0
4 8 9 10 11
4 9 7 0 10
4 12 13 9 8
3 5 7 9
3 14 15 13
4 15 16 5 13
3 10 17 18
4 10 0 19 17
3 13 5 9
3 11 10 18
3 19 0 2
3 12 14 13
3 16 3 5
3 0 1 2
3 3 4 5
4 5 4 6 7
4 7 6 1 0
4 8 9 10 11
4 9 7 0 10
4 12 13 9 8
3 5 7 9
3 14 15 13
4 15 16 5 13
3 10 17 18
4 10 0 19 17
3 13 5 9
3 11 10 18
3 19 0 2
3 12 14 13
3 16 3 5
3 0 1 2
3 3 4 5
4 5 4 6 7
4 7 6 1 0
4 8 9 10 11
4 9 7 0 10
4 12 13 9 8
3 5 7 9
3 14 15 13
4 15 16 5 13
3 10 17 18
4 10 0 19 17
3 13 5 9
3 11 10 18
3 19 0 2
3 12 14 13
3 16 3 5
3 0 1 2
3 3 4 5
4 5 4 6 7
4 7 6 1 0
4 8 9 10 11
4 9 7 0 10
4 12 13 9 8
3 5 7 9
3 14 15 13
4 15 16 5 13
3 10 17 18
4 10 0 19 17
3 13 5 9
3 11 10 18
3 19 0 2
3 12 14 13
3 16 3 5
3 0 1 2
3 3 4 5
4 5 4 6 7
4 7 6 1 0
4 8 9 10 11
4 9 7 0 10
4 12 13 9 8
3 5 7 9
3 14 15 13
4 15 16 5 13
3 10 17 18
4 10 0 19 17
3 13 5 9
3 11 10 18
3 19 0 2
3 12 14 13
3 16 3 5
3 0 1 2
3 3 4 5
4 5 4 6 7
4 7 6 1 0
4 8 9 10 11
4 9 7 0 10
4 12 13 9 8
3 5 7 9
3 14 15 13
4 15 16 5 13
3 10 17 18
4 10 0 19 17
3 13 5 9
3 11 10 18
3 19 0 2
3 12 14 13
3 16 3 5
3 0 1 2
3 3 4 5
4 5 4 6 7
4 7 6 1 0
4 8 9 10 11
4 9 7 0 10
4 12 13 9 8
3 5 7 9
3 14 15 13
4 15 16 5 13
3 10 17 18
4 10 0 19 17
3 13 5 9
3 11 10 18
3 19 0 2
3 12 14 13
3 16 3 5
3 0 1 2
3 3 4 5
4 5 4 6 7
4 7 6 1 0
4 8 9 10 11
4 9 7 0 10
4 12 13 9 8
3 5 7 9
3 14 15 13
4 15 16 5 13
3 10 17 18
4 10 0 19 17
3 13 5 9
3 11 10 18
3 19 0 2
3 12 14 13
3 16 3 5
3 0 1 2
3 3 4 5
4 5 4 6 7
4 7 6 1 0
4 8 9 10 11
4 9 7 0 10
4 12 13 9 8
3 5 7 9
3 14 15 13
4 15 16 5 13
3 10 17 18
4 10 0 19 17
3 13 5 9
3 11 10 18
3 19 0 2
3 12 14 13
3 16 3 5
3 0 1 2
3 3 4 5
4 5 4 6 7
4 7 6 1 0
4 8 9 10 11
4 9 7 0 10
4 12 13 9 8
3 5 7 9
3 14 15 13
4 15 16 5 13
3 10 17 18
4 10 0 19 17
3 13 5 9
3 11 10 18
3 19 0 2
3 12 14 13
3 16 3 5
3 0 1 2
3 3 4 5
4 5 4 6 7
4 7 6 1 0
4 8 9 10 11
4 9 7 0 10
4 12 13 9 8
3 5 7 9
3 14 15 13
4 15 16 5 13
3 10 17 18
4 10 0 19 17
3 13 5 9
3 11 10 18
3 19 0 2
3 12 14 13
3 16 3 5
3 0 1 2
3 3 4 5
4 5 4 6 7
4 7 6 1 0
4 8 9 10 11
4 9 7 0 10
4 12 13 9 8
3 5 7 9
3 14 15 13
4 15 16 5 13
3 10 17 18
4 10 0 19 17
3 13 5 9
3 11 10 18
3 19 0 2
3 12 14 13
3 16 3 5
3 0 1 2
3 3 4 5
4 5 4 6 7
4 7 6 1 0
4 8 9 10 11
4 9 7 0 10
4 12 13 9 8
3 5 7 9
3 14 15 13
4 15 16 5 13
3 10 17 18
4 10 0 19 17
3 13 5 9
3 11 10 18
3 19 0 2
3 12 14 13
3 16 3 5
3 0 1 2
3 3 4 5
4 5 4 6 7
4 7 6 1 0
4 8 9 10 11
4 9 7 0 10
4 12 13 9 8
3 5 7 9
3 14 15 13
4 15 16 5 13
3 10 17 18
4 10 0 19 17
3 13 5 9
3 11 10 18
3 19 0 2
3 12 14 13
3 16 3 5
3 0 1 2
3 3 4 5
4 5 4 6 7
4 7 6 1 0
4 8 9 10 11
4 9 7 0 10
4 12 13 9 8
3 5 7 9
3 14 15 13
4 15 16 5 13
3 10 17 18
4 10 0 19 17
3 13 5 9
3 11 10 18
3 19 0 2
3 12 14 13
3 16 3 5
3 0 1 2
3 3 4 5
4 5 4 6 7
4 7 6 1 0
4 8 9 10 11
4 9 7 0 10
4 12 13 9 8
3 5 7 9
3 14 15 13
4 15 16 5 13
3 10 17 18
4 10 0 19 17
3 13 5 9
3 11 10 18
3 19 0 2
3 12 14 13
3 16 3 5
3 0 1 2
3 3 4 5
4 5 4 6 7
4 7 6 1 0
4 8 9 10 11
4 9 7 0 10
4 12 13 9 8
3 5 7 9
3 14 15 13
4 15 16 5 13
3 10 17 18
4 10 0 19 17
3 13 5 9
3 11 10 18
3 19 0 2
3 12 14 13
3 16 3 5
3 0 1 2
3 3 4 5
4 5 4 6 7
4 7 6 1 0
4 8 9 10 11
4 9 7 0 10
4 12 13 9 8
3 5 7 9
3 14 15 13
4 15 16 5 13
3 10 17 18
4 10 0 19 17
3 13 5 9
3 11 10 18
3 19 0 2
3 12 14 13
3 16 3 5
3 0 1 2
3 3 4 5
4 5 4 6 7
4 7 6 1 0
4 8 9 10 11
4 9 7 0 10
4 12 13 9 8
3 5 7 9
3 14 15 13
4 15 16 5 13
3 10 17 18
4 10 0 19 17
3 13 5 9
3 11 10 18
3 19 0 2
3 12 14 13
3 16 3 5
3 0 1 2
3 3 4 5
4 5 4 6 7
4 7 6 1 0
4 8 9 10 11
4 9 7 0 10
4 12 13 9 8
3 5 7 9
3 14 15 13
4 15 16 5 13
3 10 17 18
4 10 0 19 17
3 13 5 9
3 11 10 18
3 19 0 2
3 12 14 13
3 16 3 5
3 0 1 2
3 3 4 5
4 5 4 6 7
4 7 6 1 0
4 8 9 10 11
4 9 7 0 10
4 12 13 9 8
3 5 7 9
3 14 15 13
4 15 16 5 13
3 10 17 18
4 10 0 19 17
3 13 5 9
3 11 10 18
3 19 0 2
3 12 14 13
3 16 3 5
3 0 1 2
3 3 4 5
4 5 4 6 7
4 7 6 1 0
4 8 9 10 11
4 9 7 0 10
4 12 13 9 8
3 5 7 9
3 14 15 13
4 15 16 5 13
3 10 17 18
4 10 0 19 17
3 13 5 9
3 11 10 18
3 19 0 2
3 12 14 13
3 16 3 5
3 0 1 2
3 3 4 5
4 5 4 6 7
4 7 6 1 0
4 8 9 10 11
4 9 7 0 10
4 12 13 9 8
3 5 7 9
3 14 15 13
4 15 16 5 13
3 10 17 18
4 10 0 19 17
3 13 5 9
3 11 10 18
3 19 0 2
3 12 14 13
3 16 3 5
3 0 1 2
3 3 4 5
4 5 4 6 7
4 7 6 1 0
4 8 9 10 11
4 9 7 0 10
4 12 13 9 8
3 5 7 9
3 14 15 13
4 15 16 5 13
3 10 17 18
4 10 0 19 17
3 13 5 9
3 11 10 18
3 19 0 2
3 12 14 13
3 16 3 5
3 0 1 2
3 3 4 5
4 5 4 6 7
4 7 6 1 0
4 8 9 10 11
4 9 7 0 10
4 12 13 9 8
3 5 7 9
3 14 15 13
4 15 16 5 13
3 10 17 18
4 10 0 19 17
3 13 5 9
3 11 10 18
3 19 0 2
3 12 14 13
3 16 3 5
3 0 1 2
3 3 4 5
4 5 4 6 7
4 7 6 1 0
4 8 9 10 11
4 9 7 0 10
4 12 13 9 8
3 5 7 9
3 14 15 13
4 15 16 5 13
3 10 17 18
4 10 0 19 17
3 13 5 9
3 11 10 18
3 19 0 2
3 12 14 13
3 16 3 5
3 0 1 2
3 3 4 5
4 5 4 6 7
4 7 6 1 0
4 8 9 10 11
4 9 7 0 10
4 12 13 9 8
3 5 7 9
3 14 15 13
4 15 16 5 13
3 10 17 18
4 10 0 19 17
3 13 5 9
3 11 10 18
3 19 0 2
3 12 14 13
3 16 3 5
3 0 1 2
3 3 4 5
4 5 4 6 7
4 7 6 1 0
4 8 9 10 11
4 9 7 0 10
4 12 13 9 8
3 5 7 9
3 14 15 13
4 15 16 5 13
3 10 17 18
4 10 0 19 17
3 13 5 9
3 11 10 18
3 19 0 2
3 12 14 13
3 16 3 5
3 0 1 2
3 3 4 5
4 5 4 6 7
4 7 6 1 0
4 8 9 10 11
4 9 7 0 10
4 12 13 9 8
3 5 7 9
3 14 15 13
4 15 16 5 13
3 10 17 18
4 10 0 19 17
3 13 5 9
3 11 10 18
3 19 0 2
3 12 14 13
3 16 3 5
3 0 1 2
3 3 4 5
4 5 4 6 7
4 7 6 1 0
4 8 9 10 11
4 9 7 0 10
4 12 13 9 8
3 5 7 9
3 14 15 13
4 15 16 5 13
3 10 17 18
4 10 0 19 17
3 13 5 9
3 11 10 18
3 19 0 2
3 12 14 13
3 16 3 5
3 0 1 2
3 3 4 5
4 5 4 6 7
4 7 6 1 0
4 8 9 10 11
4 9 7 0 10
4 12 13 9 8
3 5 7 9
3 14 15 13
4 15 16 5 13
3 10 17 18
4 10 0 19 17
3 13 5 9
3 11 10 18
3 19 0 2
3 12 14 13
3 16 3 5
3 0 1 2
3 3 4 5
4 5 4 6 7
4 7 6 1 0
4 8 9 10 11
4 9 7 0 10
4 12 13 9 8
3 5 7 9
3 14 15 13
4 15 16 5 13
3 10 17 18
4 10 0 19 17
3 13 5 9
3 11 10 18
3 19 0 2
3 12 14 13
3 16 3 5
3 0 1 2
3 3 4 5
4 5 4 6 7
4 7 6 1 0
4 8 9 10 11
4 9 7 0 10
4 12 13 9 8
3 5 7 9
3 14 15 13
4 15 16 5 13
3 10 17 18
4 10 0 19 17
3 13 5 9
3 11 10 18
3 19 0 2
3 12 14 13
3 16 3 5
3 0 1 2
3 3 4 5
4 5 4 6 7
4 7 6 1 0
4 8 9 10 11
4 9 7 0 10
4 12 13 9 8
3 5 7 9
3 14 15 13
4 15 16 5 13
3 10 17 18
4 10 0 19 17
3 13 5 9
3 11 10 18
3 19 0 2
3 12 14 13
3 16 3 5
3 0 1 2
3 3 4 5
4 5 4 6 7
4 7 6 1 0
4 8 9 10 11
4 9 7 0 10
4 12 13 9 8
3 5 7 9
3 14 15 13
4 15 16 5 13
3 10 17 18
4 10 0 19 17
3 13 5 9
3 11 10 18
3 19 0 2
3 12 14 13
3 16 3 5
3 0 1 2
3 3 4 5
4 5 4 6 7
4 7 6 1 0
4 8 9 10 11
4 9 7 0 10
4 12 13 9 8
3 5 7 9
3 14 15 13
4 15 16 5 13
3 10 17 18
4 10 0 19 17
3 13 5 9
3 11 10 18
3 19 0 2
3 12 14 13
3 16 3 5
3 0 1 2
3 3 4 5
4 5 4 6 7
4 7 6 1 0
4 8 9 10 11
4 9 7 0 10
4 12 13 9 8
3 5 7 9
3 14 15 13
4 15 16 5 13
3 10 17 18
4 10 0 19 17
3 13 5 9
3 11 10 18
3 19 0 2
3 12 14 13
3 16 3 5
3 0 1 2
3 3 4 5
4 5 4 6 7
4 7 6 1 0
4 8 9 10 11
4 9 7 0 10
4 12 13 9 8
3 5 7 9
3 14 15 13
4 15 16 5 13
3 10 17 18
4 10 0 19 17
3 13 5 9
3 11 10 18
3 19 0 2
3 12 14 13
3 16 3 5
3 0 1 2
3 3 4 5
4 5 4 6 7
4 7 6 1 0
4 8 9 10 11
4 9 7 0 10
4 12 13 9 8
3 5 7 9
3 14 15 13
4 15 16 5 13
3 10 17 18
4 10 0 19 17
3 13 5 9
3 11 10 18
3 19 0 2
3 12 14 13
3 16 3 5
3 0 1 2
3 3 4 5
4 5 4 6 7
4 7 6 1 0
4 8 9 10 11
4 9 7 0 10
4 12 13 9 8
3 5 7 9
3 14 15 13
4 15 16 5 13
3 10 17 18
4 10 0 19 17
3 13 5 9
3 11 10 18
3 19 0 2
3 12 14 13
3 16 3 5
3 0 1 2
3 3 4 5
4 5 4 6 7
4 7 6 1 0
4 8 9 10 11
4 9 7 0 10
4 12 13 9 8
3 5 7 9
3 14 15 13
4 15 16 5 13
3 10 17 18
4 10 0 19 17
3 13 5 9
3 11 10 18
3 19 0 2
3 12 14 13
3 16 3 5
3 0 1 2
3 3 4 5
4 5 4 6 7
4 7 6 1 0
4 8 9 10 11
4 9 7 0 10
4 12 13 9 8
3 5 7 9
3 14 15 13
4 15 16 5 13
3 10 17 18
4 10 0 19 17
3 13 5 9
3 11 10 18
3 19 0 2
3 12 14 13
3 16 3 5
3 0 1 2
3 3 4 5
4 5 4 6 7
4 7 6 1 0
4 8 9 10 11
4 9 7 0 10
4 12 13 9 8
3 5 7 9
3 14 15 13
4 15 16 5 13
3 10 17 18
4 10 0 19 17
3 13 5 9
3 11 10 18
3 19 0 2
3 12 14 13
3 16 3 5
3 0 1 2
3 3 4 5
4 5 4 6 7
4 7 6 1 0
4 8 9 10 11
4 9 7 0 10
4 12 13 9 8
3 5 7 9
3 14 15 13
4 15 16 5 13
3 10 17 18
4 10 0 19 17
3 13 5 9
3 11 10 18
3 19 0 2
3 12 14 13
3 16 3 5
3 0 1 2
3 3 4 5
4 5 4 6 7
4 7 6 1 0
4 8 9 10 11
4 9 7 0 10
4 12 13 9 8
3 5 7 9
3 14 15 13
4 15 16 5 13
3 10 17 18
4 10 0 19 17
3 13 5 9
3 11 10 18
3 19 0 2
3 12 14 13
3 16 3 5
3 0 1 2
3 3 4 5
4 5 4 6 7
4 7 6 1 0
4 8 9 10 11
4 9 7 0 10
4 12 13 9 8
3 5 7 9
3 14 15 13
4 15 16 5 13
3 10 17 18
4 10 0 19 17
3 13 5 9
3 11 10 18
3 19 0 2
3 12 14 13
3 16 3 5
3 0 1 2
3 3 4 5
4 5 4 6 7
4 7 6 1 0
4 8 9 10 11
4 9 7 0 10
4 12 13 9 8
3 5 7 9
3 14 15 13
4 15 16 5 13
3 10 17 18
4 10 0 19 17
3 13 5 9
3 11 10 18
3 19 0 2
3 12 14 13
3 16 3 5
3 0 1 2
3 3 4 5
4 5 4 6 7
4 7 6 1 0
4 8 9 10 11
4 9 7 0 10
4 12 13 9 8
3 5 7 9
3 14 15 13
4 15 16 5 13
3 10 17 18
4 10 0 19 17
3 13 5 9
3 11 10 18
3 19 0 2
3 12 14 13
3 16 3 5
4 20 21 22 23
4 24 25 26 27
4 27 26 28 29
4 30 31 32 33
4 34 35 36 37
4 28 26 38 39
4 37 36 40 41
4 42 43 21 20
7 44 45 46 47 48 49 50
4 51 41 52 53
4 54 37 41 51
4 55 33 56 57
4 58 30 33 55
4 59 27 29 60
4 61 24 27 59
4 62 20 23 63
4 64 65 66 67
4 40 36 68 69
4 32 31 70 71
4 21 43 65 64
4 26 25 72 38
4 36 35 73 68
4 22 21 64 74
4 75 76 77 78
3 68 73 79
3 80 81 82
3 83 67 84
4 69 68 85 86
4 87 88 82 89
4 83 84 90 91
4 92 93 94 95
4 96 97 98 99
4 100 101 102 103
4 104 105 106 107
3 108 109 96
4 100 103 110 111
4 112 104 107 113
4 114 115 116 117
4 85 68 79 118
3 39 38 119
4 120 121 122 123
4 124 125 126 127
4 128 129 130 131
4 114 117 132 133
4 134 135 136 137
4 117 116 138 139
4 131 130 135 134
4 140 141 142 143
4 144 145 146 147
4 143 142 148 149
4 123 122 150 151
4 139 138 152 153
4 71 70 154 155
4 79 73 129 128
4 156 157 158 159
4 39 119 115 114
4 133 132 160 161
4 162 163 164 165
4 166 167 168 169
4 130 129 170 171
4 172 173 174 175
4 169 168 176 177
4 165 164 178 179
4 171 170 180 181
4 182 183 184 185
4 186 187 188 189
4 128 131 190 191
4 116 115 183 182
4 192 193 194 195
4 191 190 196 197
4 127 126 195 194
4 189 188 198 199
4 84 67 104 112
4 200 201 100 202
4 203 89 109 108
4 67 66 105 104
4 201 204 101 100
4 89 82 205 109
4 86 85 76 75
7 206 207 208 209 210 211 212
4 213 214 215 216
4 217 218 219 220
4 221 222 223 224
4 93 225 226 94
4 227 217 220 228
4 229 221 224 230
4 38 72 231 232
4 233 234 235 236
4 237 238 239 240
4 241 242 234 233
4 81 80 243 244
4 245 246 247 248
4 244 243 249 250
4 91 90 251 252
4 240 239 253 254
4 255 256 257 258
4 259 260 261 262
4 263 108 96 99
4 264 80 82 88
4 74 64 67 83
4 265 266 267 268
4 262 261 269 270
4 271 272 266 265
4 272 273 274 266
4 275 276 277 278
4 279 280 281 282
3 283 284 285
4 286 287 288 289
4 290 291 285 284
4 266 274 292 267
4 293 294 295 296
4 261 260 297 298
4 299 300 301 302
4 271 265 303 304
4 305 306 307 308
4 258 257 309 310
4 304 303 311 312
4 298 297 313 314
4 263 99 221 229
4 315 78 217 227
4 103 102 225 93
4 99 98 222 221
4 78 77 218 217
4 113 107 214 213
4 98 316 317 222
7 318 319 320 321 322 323 324
