ply
format ascii 1.0
comment Created by Blender 3.3.1 - www.blender.org
element vertex 100
property float x
property float y
property float z
property float nx
property float ny
property float nz
property float s
property float t
element face 770
property list uchar uint vertex_indices
end_header
-0.120060 0.040542 11.711741 -0.730115 0.139625 0.668907 1.005744 0.690159
-0.192795 0.270902 11.451395 -0.732896 0.409061 0.543629 0.842525 0.875687
-0.266848 0.333501 11.293407 -0.606201 0.274848 0.746310 0.723412 0.935218
-0.294163 0.310242 11.285133 -0.550976 0.259783 0.793056 0.702063 0.920240
-0.459213 -0.210046 11.334074 -0.319991 0.362327 0.875400 0.612584 0.516846
-0.337954 -0.194579 11.323628 -0.564239 -0.096070 0.820003 0.683685 0.535405
-0.351878 -0.180982 11.318995 -0.451456 -0.020115 0.892066 0.673065 0.543508
-1.053361 0.058860 10.990778 -0.441107 0.181583 0.878893 0.085628 0.725085
-0.545281 0.040127 11.262534 -0.545285 0.147442 0.825182 0.529826 0.708224
-0.497663 0.117982 11.243920 -0.555063 0.310266 0.771778 0.552239 0.765573
-0.860603 0.189195 11.043506 -0.428976 0.298732 0.852490 0.233025 0.818656
-0.422690 0.200353 11.251738 -0.535680 0.359233 0.764198 0.604194 0.833542
-0.475596 0.146109 11.244322 -0.518820 0.391293 0.760076 0.566712 0.787528
-0.749938 0.337542 11.039042 -0.389645 0.289973 0.874124 0.302699 0.941197
-0.425305 0.411327 11.243712 -0.460243 0.026071 0.887410 0.602591 0.995604
-0.726635 -0.157638 11.162086 -0.439585 0.016401 0.898051 0.365988 0.565701
-0.443953 -0.093568 11.291586 -0.554827 -0.081631 0.827952 0.604303 0.612063
-0.740222 0.214061 11.120906 -0.419224 0.165870 0.892602 0.344892 0.836724
-0.282082 -0.164456 11.414062 -0.744140 -0.297610 0.598068 0.761470 0.555708
-0.000000 0.905182 -0.109818 -0.171377 0.833558 -0.525177 0.072242 0.013759
-0.046103 0.535368 1.388992 -0.150419 0.981995 0.114281 0.087768 0.078869
0.350286 0.524291 1.389690 0.633246 0.752572 0.180654 0.068666 0.080893
0.690726 0.709746 -0.109818 0.608241 0.606856 -0.511632 0.043312 0.017608
0.690726 0.709746 -0.109818 0.608241 0.606856 -0.511632 0.280442 0.520688
0.350286 0.524291 1.389690 0.633246 0.752572 0.180654 0.281166 0.453748
0.541481 0.040737 1.325834 0.937169 -0.298085 0.181271 0.308416 0.457280
0.788259 -0.000001 -0.109818 0.793549 -0.274527 -0.543061 0.314595 0.520574
0.788259 -0.000001 -0.109818 0.793549 -0.274527 -0.543061 0.133181 0.519766
0.541481 0.040737 1.325834 0.937169 -0.298085 0.181271 0.140942 0.456841
0.201419 -0.245359 1.234827 0.733046 -0.670043 0.116987 0.165258 0.460484
0.332040 -0.342314 -0.109817 0.580925 -0.525885 -0.621266 0.164170 0.519250
-0.014655 -0.664530 1.169981 0.370306 -0.911794 0.177499 0.189955 0.463915
-0.060758 -0.917421 -0.109818 0.246642 -0.816154 -0.522551 0.201770 0.519766
-0.060758 -0.917421 -0.109818 0.246642 -0.816154 -0.522551 0.267494 0.011919
-0.014655 -0.664530 1.169981 0.370306 -0.911794 0.177499 0.260710 0.068646
-0.411045 -0.536530 1.169282 -0.689939 -0.704719 0.165396 0.246704 0.068262
-0.618143 -0.686545 -0.109818 -0.625766 -0.559136 -0.543860 0.245192 0.011763
-0.541482 -0.040739 1.233139 -0.994091 0.058210 0.091618 0.219074 0.073933
-0.788260 -0.000001 -0.109817 -0.824644 0.091593 -0.558188 0.206760 0.015856
0.012663 -0.058102 3.271960 0.690620 -0.720565 0.061877 0.164981 0.371350
-0.107293 -0.250395 3.270432 0.343525 -0.933972 0.098420 0.177113 0.371630
-0.788260 -0.000001 -0.109817 -0.824644 0.091593 -0.558188 0.133181 0.011763
-0.541482 -0.040739 1.233139 -0.994091 0.058210 0.091618 0.125816 0.070917
-0.415485 0.349756 1.324146 -0.758238 0.648463 0.067612 0.110241 0.074633
-0.434123 0.513640 -0.109818 -0.578605 0.506729 -0.639095 0.103156 0.012432
-0.000000 0.905182 -0.109818 -0.171377 0.833558 -0.525177 0.317487 0.029646
0.690726 0.709746 -0.109818 0.608241 0.606856 -0.511632 0.352610 0.011763
0.788259 -0.000001 -0.109818 0.793549 -0.274527 -0.543061 0.383009 0.036727
0.332040 -0.342314 -0.109817 0.580925 -0.525885 -0.621266 0.377390 0.067535
-0.060758 -0.917421 -0.109818 0.246642 -0.816154 -0.522551 0.383009 0.105358
-0.618143 -0.686545 -0.109818 -0.625766 -0.559136 -0.543860 0.351938 0.116841
-0.788260 -0.000001 -0.109817 -0.824644 0.091593 -0.558188 0.319479 0.095519
-0.434123 0.513640 -0.109818 -0.578605 0.506729 -0.639095 0.314595 0.061614
0.304138 0.075422 3.274191 0.978750 -0.178833 0.100340 0.148500 0.371875
0.089694 0.053943 8.366880 0.997746 -0.051900 0.042529 0.156913 0.151675
0.029760 -0.091813 8.365767 0.681415 -0.731350 0.028304 0.164910 0.152001
-0.415485 0.349756 1.324146 -0.758238 0.648463 0.067612 0.201770 0.080847
-0.520860 0.073295 3.272129 -0.999502 0.013257 0.028639 0.222103 0.162208
-0.400797 0.365284 3.274360 -0.722277 0.691284 0.021035 0.209374 0.164634
0.053193 0.333841 3.275818 0.647753 0.758216 0.074323 0.284576 0.370511
0.304138 0.075422 3.274191 0.978750 -0.178833 0.100340 0.304174 0.372040
-0.107293 -0.250395 3.270432 0.343525 -0.933972 0.098420 0.246466 0.161227
-0.399286 -0.218070 3.270502 -0.667711 -0.740737 0.073964 0.239332 0.160552
-0.400797 0.365284 3.274360 -0.722277 0.691284 0.021035 0.114498 0.158668
-0.109428 0.486853 3.275887 0.006545 0.998991 0.044439 0.097249 0.159925
-0.046103 0.535368 1.388992 -0.150419 0.981995 0.114281 0.267494 0.451029
-0.109428 0.486853 3.275887 0.006545 0.998991 0.044439 0.272502 0.369546
-0.262198 0.198637 8.366964 -0.708277 0.704212 0.049287 0.125841 0.379048
-0.322132 0.052881 8.365851 -0.998941 -0.002872 0.045923 0.132376 0.379012
-0.150398 0.040046 11.598672 -0.760678 -0.005793 0.649103 0.133181 0.519129
-0.141900 0.060713 11.598828 -0.539883 0.531837 0.652439 0.132255 0.519134
-0.116752 0.259323 8.367727 0.050090 0.997494 0.049957 0.295664 0.150694
0.029006 0.199389 8.367693 0.696348 0.716379 0.043595 0.303123 0.151644
-0.116752 0.259323 8.367727 0.050090 0.997494 0.049957 0.117231 0.379675
-0.261445 -0.092564 8.365040 -0.671840 -0.739507 0.041941 0.256702 0.380305
-0.322132 0.052881 8.365851 -0.998941 -0.002872 0.045923 0.248102 0.381131
-0.115686 -0.152498 8.365005 0.137676 -0.989904 0.033681 0.172902 0.151703
0.089694 0.053943 8.366880 0.997746 -0.051900 0.042529 0.311474 0.151938
-0.520860 0.073295 3.272129 -0.999502 0.013257 0.028639 0.127588 0.158596
-0.399286 -0.218070 3.270502 -0.667711 -0.740737 0.073964 0.187154 0.370436
-0.261445 -0.092564 8.365040 -0.671840 -0.739507 0.041941 0.176209 0.150957
-0.100611 0.060819 11.598932 0.534346 0.534720 0.654636 0.314595 0.117709
-0.121278 0.069317 11.598938 -0.003394 0.755845 0.654742 0.315462 0.116841
-0.141900 0.060713 11.598828 -0.539883 0.531837 0.652439 0.316689 0.116841
-0.150398 0.040046 11.598672 -0.760678 -0.005793 0.649103 0.317557 0.117709
-0.141793 0.019424 11.598557 -0.536776 -0.541943 0.646660 0.317557 0.118936
-0.121126 0.010925 11.598552 0.000533 -0.762867 0.646555 0.316689 0.119803
-0.100503 0.019530 11.598659 0.536811 -0.539300 0.648837 0.315462 0.119803
-0.092005 0.040196 11.598816 0.758070 -0.001872 0.652171 0.314595 0.118936
-0.115686 -0.152498 8.365005 0.137676 -0.989904 0.033681 0.262512 0.380347
-0.121126 0.010925 11.598552 0.000533 -0.762867 0.646555 0.267494 0.520104
-0.141793 0.019424 11.598557 -0.536776 -0.541943 0.646660 0.266671 0.520098
-0.092005 0.040196 11.598816 0.758070 -0.001872 0.652171 0.164022 0.011763
-0.100503 0.019530 11.598659 0.536811 -0.539300 0.648837 0.165156 0.011809
-0.121278 0.069317 11.598938 -0.003394 0.755845 0.654742 0.312353 0.011763
-0.100611 0.060819 11.598932 0.534346 0.534720 0.654636 0.313411 0.011898
-0.121278 0.069317 11.598938 -0.003394 0.755845 0.654742 0.131034 0.519223
-0.150398 0.040046 11.598672 -0.760678 -0.005793 0.649103 0.265451 0.520216
-0.121126 0.010925 11.598552 0.000533 -0.762867 0.646555 0.166289 0.011767
-0.092005 0.040196 11.598816 0.758070 -0.001872 0.652171 0.314595 0.011940
4 0 1 2 3
3 4 5 6
4 7 8 9 10
3 0 11 12
4 13 11 3 14
4 7 15 16 8
4 15 4 6 16
4 10 9 12 17
3 3 2 14
3 12 9 0
3 3 11 0
4 6 5 18 0
3 8 16 0
3 9 8 0
3 16 6 0
4 12 11 13 17
4 0 1 2 3
3 4 5 6
4 7 8 9 10
3 0 11 12
4 13 11 3 14
4 7 15 16 8
4 15 4 6 16
4 10 9 12 17
3 3 2 14
3 12 9 0
3 3 11 0
4 6 5 18 0
3 8 16 0
3 9 8 0
3 16 6 0
4 12 11 13 17
4 0 1 2 3
3 4 5 6
4 7 8 9 10
3 0 11 12
4 13 11 3 14
4 7 15 16 8
4 15 4 6 16
4 10 9 12 17
3 3 2 14
3 12 9 0
3 3 11 0
4 6 5 18 0
3 8 16 0
3 9 8 0
3 16 6 0
4 12 11 13 17
4 0 1 2 3
3 4 5 6
4 7 8 9 10
3 0 11 12
4 13 11 3 14
4 7 15 16 8
4 15 4 6 16
4 10 9 12 17
3 3 2 14
3 12 9 0
3 3 11 0
4 6 5 18 0
3 8 16 0
3 9 8 0
3 16 6 0
4 12 11 13 17
4 0 1 2 3
3 4 5 6
4 7 8 9 10
3 0 11 12
4 13 11 3 14
4 7 15 16 8
4 15 4 6 16
4 10 9 12 17
3 3 2 14
3 12 9 0
3 3 11 0
4 6 5 18 0
3 8 16 0
3 9 8 0
3 16 6 0
4 12 11 13 17
4 0 1 2 3
3 4 5 6
4 7 8 9 10
3 0 11 12
4 13 11 3 14
4 7 15 16 8
4 15 4 6 16
4 10 9 12 17
3 3 2 14
3 12 9 0
3 3 11 0
4 6 5 18 0
3 8 16 0
3 9 8 0
3 16 6 0
4 12 11 13 17
4 0 1 2 3
3 4 5 6
4 7 8 9 10
3 0 11 12
4 13 11 3 14
4 7 15 16 8
4 15 4 6 16
4 10 9 12 17
3 3 2 14
3 12 9 0
3 3 11 0
4 6 5 18 0
3 8 16 0
3 9 8 0
3 16 6 0
4 12 11 13 17
4 0 1 2 3
3 4 5 6
4 7 8 9 10
3 0 11 12
4 13 11 3 14
4 7 15 16 8
4 15 4 6 16
4 10 9 12 17
3 3 2 14
3 12 9 0
3 3 11 0
4 6 5 18 0
3 8 16 0
3 9 8 0
3 16 6 0
4 12 11 13 17
4 0 1 2 3
3 4 5 6
4 7 8 9 10
3 0 11 12
4 13 11 3 14
4 7 15 16 8
4 15 4 6 16
4 10 9 12 17
3 3 2 14
3 12 9 0
3 3 11 0
4 6 5 18 0
3 8 16 0
3 9 8 0
3 16 6 0
4 12 11 13 17
4 0 1 2 3
3 4 5 6
4 7 8 9 10
3 0 11 12
4 13 11 3 14
4 7 15 16 8
4 15 4 6 16
4 10 9 12 17
3 3 2 14
3 12 9 0
3 3 11 0
4 6 5 18 0
3 8 16 0
3 9 8 0
3 16 6 0
4 12 11 13 17
4 0 1 2 3
3 4 5 6
4 7 8 9 10
3 0 11 12
4 13 11 3 14
4 7 15 16 8
4 15 4 6 16
4 10 9 12 17
3 3 2 14
3 12 9 0
3 3 11 0
4 6 5 18 0
3 8 16 0
3 9 8 0
3 16 6 0
4 12 11 13 17
4 0 1 2 3
3 4 5 6
4 7 8 9 10
3 0 11 12
4 13 11 3 14
4 7 15 16 8
4 15 4 6 16
4 10 9 12 17
3 3 2 14
3 12 9 0
3 3 11 0
4 6 5 18 0
3 8 16 0
3 9 8 0
3 16 6 0
4 12 11 13 17
4 0 1 2 3
3 4 5 6
4 7 8 9 10
3 0 11 12
4 13 11 3 14
4 7 15 16 8
4 15 4 6 16
4 10 9 12 17
3 3 2 14
3 12 9 0
3 3 11 0
4 6 5 18 0
3 8 16 0
3 9 8 0
3 16 6 0
4 12 11 13 17
4 0 1 2 3
3 4 5 6
4 7 8 9 10
3 0 11 12
4 13 11 3 14
4 7 15 16 8
4 15 4 6 16
4 10 9 12 17
3 3 2 14
3 12 9 0
3 3 11 0
4 6 5 18 0
3 8 16 0
3 9 8 0
3 16 6 0
4 12 11 13 17
4 0 1 2 3
3 4 5 6
4 7 8 9 10
3 0 11 12
4 13 11 3 14
4 7 15 16 8
4 15 4 6 16
4 10 9 12 17
3 3 2 14
3 12 9 0
3 3 11 0
4 6 5 18 0
3 8 16 0
3 9 8 0
3 16 6 0
4 12 11 13 17
4 0 1 2 3
3 4 5 6
4 7 8 9 10
3 0 11 12
4 13 11 3 14
4 7 15 16 8
4 15 4 6 16
4 10 9 12 17
3 3 2 14
3 12 9 0
3 3 11 0
4 6 5 18 0
3 8 16 0
3 9 8 0
3 16 6 0
4 12 11 13 17
4 0 1 2 3
3 4 5 6
4 7 8 9 10
3 0 11 12
4 13 11 3 14
4 7 15 16 8
4 15 4 6 16
4 10 9 12 17
3 3 2 14
3 12 9 0
3 3 11 0
4 6 5 18 0
3 8 16 0
3 9 8 0
3 16 6 0
4 12 11 13 17
4 0 1 2 3
3 4 5 6
4 7 8 9 10
3 0 11 12
4 13 11 3 14
4 7 15 16 8
4 15 4 6 16
4 10 9 12 17
3 3 2 14
3 12 9 0
3 3 11 0
4 6 5 18 0
3 8 16 0
3 9 8 0
3 16 6 0
4 12 11 13 17
4 0 1 2 3
3 4 5 6
4 7 8 9 10
3 0 11 12
4 13 11 3 14
4 7 15 16 8
4 15 4 6 16
4 10 9 12 17
3 3 2 14
3 12 9 0
3 3 11 0
4 6 5 18 0
3 8 16 0
3 9 8 0
3 16 6 0
4 12 11 13 17
4 0 1 2 3
3 4 5 6
4 7 8 9 10
3 0 11 12
4 13 11 3 14
4 7 15 16 8
4 15 4 6 16
4 10 9 12 17
3 3 2 14
3 12 9 0
3 3 11 0
4 6 5 18 0
3 8 16 0
3 9 8 0
3 16 6 0
4 12 11 13 17
4 0 1 2 3
3 4 5 6
4 7 8 9 10
3 0 11 12
4 13 11 3 14
4 7 15 16 8
4 15 4 6 16
4 10 9 12 17
3 3 2 14
3 12 9 0
3 3 11 0
4 6 5 18 0
3 8 16 0
3 9 8 0
3 16 6 0
4 12 11 13 17
4 0 1 2 3
3 4 5 6
4 7 8 9 10
3 0 11 12
4 13 11 3 14
4 7 15 16 8
4 15 4 6 16
4 10 9 12 17
3 3 2 14
3 12 9 0
3 3 11 0
4 6 5 18 0
3 8 16 0
3 9 8 0
3 16 6 0
4 12 11 13 17
4 0 1 2 3
3 4 5 6
4 7 8 9 10
3 0 11 12
4 13 11 3 14
4 7 15 16 8
4 15 4 6 16
4 10 9 12 17
3 3 2 14
3 12 9 0
3 3 11 0
4 6 5 18 0
3 8 16 0
3 9 8 0
3 16 6 0
4 12 11 13 17
4 0 1 2 3
3 4 5 6
4 7 8 9 10
3 0 11 12
4 13 11 3 14
4 7 15 16 8
4 15 4 6 16
4 10 9 12 17
3 3 2 14
3 12 9 0
3 3 11 0
4 6 5 18 0
3 8 16 0
3 9 8 0
3 16 6 0
4 12 11 13 17
4 0 1 2 3
3 4 5 6
4 7 8 9 10
3 0 11 12
4 13 11 3 14
4 7 15 16 8
4 15 4 6 16
4 10 9 12 17
3 3 2 14
3 12 9 0
3 3 11 0
4 6 5 18 0
3 8 16 0
3 9 8 0
3 16 6 0
4 12 11 13 17
4 0 1 2 3
3 4 5 6
4 7 8 9 10
3 0 11 12
4 13 11 3 14
4 7 15 16 8
4 15 4 6 16
4 10 9 12 17
3 3 2 14
3 12 9 0
3 3 11 0
4 6 5 18 0
3 8 16 0
3 9 8 0
3 16 6 0
4 12 11 13 17
4 0 1 2 3
3 4 5 6
4 7 8 9 10
3 0 11 12
4 13 11 3 14
4 7 15 16 8
4 15 4 6 16
4 10 9 12 17
3 3 2 14
3 12 9 0
3 3 11 0
4 6 5 18 0
3 8 16 0
3 9 8 0
3 16 6 0
4 12 11 13 17
4 0 1 2 3
3 4 5 6
4 7 8 9 10
3 0 11 12
4 13 11 3 14
4 7 15 16 8
4 15 4 6 16
4 10 9 12 17
3 3 2 14
3 12 9 0
3 3 11 0
4 6 5 18 0
3 8 16 0
3 9 8 0
3 16 6 0
4 12 11 13 17
4 19 20 21 22
4 23 24 25 26
4 27 28 29 30
4 30 29 31 32
4 33 34 35 36
4 36 35 37 38
4 31 29 39 40
4 41 42 43 44
4 44 43 20 19
8 45 46 47 48 49 50 51 52
4 39 53 54 55
4 56 37 57 58
4 25 24 59 60
4 35 34 61 62
4 20 43 63 64
4 24 65 66 59
4 29 28 53 39
4 37 35 62 57
4 67 68 69 70
4 59 66 71 72
4 64 63 67 73
4 57 62 74 75
4 40 39 55 76
4 60 59 72 77
4 63 78 68 67
4 79 40 76 80
8 81 82 83 84 85 86 87 88
4 74 89 90 91
4 55 54 92 93
4 72 71 94 95
4 73 67 70 96
4 75 74 91 97
4 76 55 93 98
4 77 72 95 99
4 0 1 2 3
3 4 5 6
4 7 8 9 10
3 0 11 12
4 13 11 3 14
4 7 15 16 8
4 15 4 6 16
4 10 9 12 17
3 3 2 14
3 12 9 0
3 3 11 0
4 6 5 18 0
3 8 16 0
3 9 8 0
3 16 6 0
4 12 11 13 17
4 0 1 2 3
3 4 5 6
4 7 8 9 10
3 0 11 12
4 13 11 3 14
4 7 15 16 8
4 15 4 6 16
4 10 9 12 17
3 3 2 14
3 12 9 0
3 3 11 0
4 6 5 18 0
3 8 16 0
3 9 8 0
3 16 6 0
4 12 11 13 17
4 0 1 2 3
3 4 5 6
4 7 8 9 10
3 0 11 12
4 13 11 3 14
4 7 15 16 8
4 15 4 6 16
4 10 9 12 17
3 3 2 14
3 12 9 0
3 3 11 0
4 6 5 18 0
3 8 16 0
3 9 8 0
3 16 6 0
4 12 11 13 17
4 0 1 2 3
3 4 5 6
4 7 8 9 10
3 0 11 12
4 13 11 3 14
4 7 15 16 8
4 15 4 6 16
4 10 9 12 17
3 3 2 14
3 12 9 0
3 3 11 0
4 6 5 18 0
3 8 16 0
3 9 8 0
3 16 6 0
4 12 11 13 17
4 0 1 2 3
3 4 5 6
4 7 8 9 10
3 0 11 12
4 13 11 3 14
4 7 15 16 8
4 15 4 6 16
4 10 9 12 17
3 3 2 14
3 12 9 0
3 3 11 0
4 6 5 18 0
3 8 16 0
3 9 8 0
3 16 6 0
4 12 11 13 17
4 0 1 2 3
3 4 5 6
4 7 8 9 10
3 0 11 12
4 13 11 3 14
4 7 15 16 8
4 15 4 6 16
4 10 9 12 17
3 3 2 14
3 12 9 0
3 3 11 0
4 6 5 18 0
3 8 16 0
3 9 8 0
3 16 6 0
4 12 11 13 17
4 0 1 2 3
3 4 5 6
4 7 8 9 10
3 0 11 12
4 13 11 3 14
4 7 15 16 8
4 15 4 6 16
4 10 9 12 17
3 3 2 14
3 12 9 0
3 3 11 0
4 6 5 18 0
3 8 16 0
3 9 8 0
3 16 6 0
4 12 11 13 17
4 0 1 2 3
3 4 5 6
4 7 8 9 10
3 0 11 12
4 13 11 3 14
4 7 15 16 8
4 15 4 6 16
4 10 9 12 17
3 3 2 14
3 12 9 0
3 3 11 0
4 6 5 18 0
3 8 16 0
3 9 8 0
3 16 6 0
4 12 11 13 17
4 0 1 2 3
3 4 5 6
4 7 8 9 10
3 0 11 12
4 13 11 3 14
4 7 15 16 8
4 15 4 6 16
4 10 9 12 17
3 3 2 14
3 12 9 0
3 3 11 0
4 6 5 18 0
3 8 16 0
3 9 8 0
3 16 6 0
4 12 11 13 17
4 0 1 2 3
3 4 5 6
4 7 8 9 10
3 0 11 12
4 13 11 3 14
4 7 15 16 8
4 15 4 6 16
4 10 9 12 17
3 3 2 14
3 12 9 0
3 3 11 0
4 6 5 18 0
3 8 16 0
3 9 8 0
3 16 6 0
4 12 11 13 17
4 0 1 2 3
3 4 5 6
4 7 8 9 10
3 0 11 12
4 13 11 3 14
4 7 15 16 8
4 15 4 6 16
4 10 9 12 17
3 3 2 14
3 12 9 0
3 3 11 0
4 6 5 18 0
3 8 16 0
3 9 8 0
3 16 6 0
4 12 11 13 17
4 0 1 2 3
3 4 5 6
4 7 8 9 10
3 0 11 12
4 13 11 3 14
4 7 15 16 8
4 15 4 6 16
4 10 9 12 17
3 3 2 14
3 12 9 0
3 3 11 0
4 6 5 18 0
3 8 16 0
3 9 8 0
3 16 6 0
4 12 11 13 17
4 0 1 2 3
3 4 5 6
4 7 8 9 10
3 0 11 12
4 13 11 3 14
4 7 15 16 8
4 15 4 6 16
4 10 9 12 17
3 3 2 14
3 12 9 0
3 3 11 0
4 6 5 18 0
3 8 16 0
3 9 8 0
3 16 6 0
4 12 11 13 17
4 0 1 2 3
3 4 5 6
4 7 8 9 10
3 0 11 12
4 13 11 3 14
4 7 15 16 8
4 15 4 6 16
4 10 9 12 17
3 3 2 14
3 12 9 0
3 3 11 0
4 6 5 18 0
3 8 16 0
3 9 8 0
3 16 6 0
4 12 11 13 17
4 0 1 2 3
3 4 5 6
4 7 8 9 10
3 0 11 12
4 13 11 3 14
4 7 15 16 8
4 15 4 6 16
4 10 9 12 17
3 3 2 14
3 12 9 0
3 3 11 0
4 6 5 18 0
3 8 16 0
3 9 8 0
3 16 6 0
4 12 11 13 17
4 0 1 2 3
3 4 5 6
4 7 8 9 10
3 0 11 12
4 13 11 3 14
4 7 15 16 8
4 15 4 6 16
4 10 9 12 17
3 3 2 14
3 12 9 0
3 3 11 0
4 6 5 18 0
3 8 16 0
3 9 8 0
3 16 6 0
4 12 11 13 17
4 0 1 2 3
3 4 5 6
4 7 8 9 10
3 0 11 12
4 13 11 3 14
4 7 15 16 8
4 15 4 6 16
4 10 9 12 17
3 3 2 14
3 12 9 0
3 3 11 0
4 6 5 18 0
3 8 16 0
3 9 8 0
3 16 6 0
4 12 11 13 17
4 0 1 2 3
3 4 5 6
4 7 8 9 10
3 0 11 12
4 13 11 3 14
4 7 15 16 8
4 15 4 6 16
4 10 9 12 17
3 3 2 14
3 12 9 0
3 3 11 0
4 6 5 18 0
3 8 16 0
3 9 8 0
3 16 6 0
4 12 11 13 17
