ply
format ascii 1.0
comment Created by Blender 3.3.1 - www.blender.org
element vertex 42
property float x
property float y
property float z
property float nx
property float ny
property float nz
property float s
property float t
element face 9
property list uchar uint vertex_indices
end_header
-0.660672 0.922188 0.710861 -0.605680 0.791683 0.079939 0.762739 0.404637
-0.360432 0.853340 1.381714 -0.269471 0.695232 0.666361 0.913544 0.421634
0.750208 0.665924 1.011534 0.680179 0.554177 0.479838 0.913544 0.665377
0.650089 0.699678 -0.047330 0.575852 0.542774 -0.611384 0.701402 0.718804
0.024820 1.000000 -0.047330 -0.007160 0.783383 -0.621498 0.653118 0.584624
-0.063595 -0.704820 1.585922 0.099328 -0.571607 0.814493 0.515636 0.799985
-0.464206 -0.152116 1.583725 -0.449892 0.107229 0.886622 0.648490 0.754776
-1.000000 -1.000000 1.022443 -0.627295 -0.626632 0.462422 0.648490 0.991065
0.750208 0.665924 1.011534 0.680179 0.554177 0.479838 0.669170 0.000000
-0.360432 0.853340 1.381714 -0.269471 0.695232 0.666361 0.912912 0.000319
-0.464206 -0.152116 1.583725 -0.449892 0.107229 0.886622 0.912913 0.212231
-0.063595 -0.704820 1.585922 0.099328 -0.571607 0.814493 0.817640 0.315272
0.536976 -0.551369 1.396855 0.642932 -0.392551 0.657680 0.694282 0.264942
0.672403 -0.682586 0.974456 0.756849 -0.644967 0.105820 0.527198 0.404637
0.536976 -0.551369 1.396855 0.642932 -0.392551 0.657680 0.619659 0.426878
-0.063595 -0.704820 1.585922 0.099328 -0.571607 0.814493 0.653118 0.555839
-1.000000 -1.000000 1.022443 -0.627295 -0.626632 0.462422 0.532347 0.754776
-1.000000 -1.000000 -0.047329 -0.618723 -0.640603 -0.454763 0.312419 0.754776
-0.179687 -1.000000 -0.047329 0.219064 -0.750039 -0.624061 0.312419 0.586133
0.650089 0.699678 -0.047330 0.575852 0.542774 -0.611384 0.276841 0.478397
0.750208 0.665924 1.011534 0.680179 0.554177 0.479838 0.276841 0.697164
0.536976 -0.551369 1.396855 0.642932 -0.392551 0.657680 0.035148 0.808560
0.672403 -0.682586 0.974456 0.756849 -0.644967 0.105820 0.000000 0.720195
1.000000 -0.172189 -0.047330 0.797146 -0.231378 -0.557694 0.084105 0.490851
0.024820 1.000000 -0.047330 -0.007160 0.783383 -0.621498 0.000000 0.069759
0.650089 0.699678 -0.047330 0.575852 0.542774 -0.611384 0.124377 0.000000
1.000000 -0.172189 -0.047330 0.797146 -0.231378 -0.557694 0.312419 0.044073
-0.179687 -1.000000 -0.047329 0.219064 -0.750039 -0.624061 0.312419 0.340351
-1.000000 -1.000000 -0.047329 -0.618723 -0.640603 -0.454763 0.215549 0.478397
-1.000000 0.250620 -0.047330 -0.765863 0.298790 -0.569367 0.005089 0.330713
-1.000000 -1.000000 -0.047329 -0.618723 -0.640603 -0.454763 0.669170 0.404637
-1.000000 -1.000000 1.022443 -0.627295 -0.626632 0.462422 0.449242 0.404637
-0.464206 -0.152116 1.583725 -0.449892 0.107229 0.886622 0.312419 0.211992
-0.360432 0.853340 1.381714 -0.269471 0.695232 0.666361 0.354810 0.004363
-0.660672 0.922188 0.710861 -0.605680 0.791683 0.079939 0.506508 0.000000
-1.000000 0.250620 -0.047330 -0.765863 0.298790 -0.569367 0.669170 0.147530
0.672403 -0.682586 0.974456 0.756849 -0.644967 0.105820 0.879968 0.718804
-0.179687 -1.000000 -0.047329 0.219064 -0.750039 -0.624061 0.879968 1.000000
1.000000 -0.172189 -0.047330 0.797146 -0.231378 -0.557694 0.653118 0.809422
-0.660672 0.922188 0.710861 -0.605680 0.791683 0.079939 0.515636 0.974376
0.024820 1.000000 -0.047330 -0.007160 0.783383 -0.621498 0.312419 0.918563
-1.000000 0.250620 -0.047330 -0.765863 0.298790 -0.569367 0.515636 0.754776
5 0 1 2 3 4
3 5 6 7
5 8 9 10 11 12
6 13 14 15 16 17 18
5 19 20 21 22 23
6 24 25 26 27 28 29
6 30 31 32 33 34 35
3 36 37 38
3 39 40 41
