ply
format ascii 1.0
comment Created by Blender 3.3.1 - www.blender.org
element vertex 80
property float x
property float y
property float z
property float nx
property float ny
property float nz
property float s
property float t
element face 24
property list uchar uint vertex_indices
end_header
-2.188447 -0.387737 -0.008990 0.639291 0.567254 0.519162 0.005600 -0.000891
-2.083622 -0.387737 0.491010 0.692061 0.707107 -0.145091 0.029333 0.112311
-2.031209 -0.387737 0.741010 0.692061 0.707107 -0.145091 0.041200 0.168912
-1.978796 -0.387737 0.991010 0.655992 0.638570 -0.402372 0.053066 0.225513
-1.611907 -0.387737 1.285917 0.381193 0.678803 -0.627629 0.136131 0.292281
-1.401117 -0.387737 1.378679 0.284816 0.707107 -0.647209 0.183855 0.313282
-1.190326 -0.387737 1.471441 0.629450 0.612481 -0.478184 0.231578 0.334284
-1.118743 -0.387737 1.968222 0.580414 0.596908 -0.553914 0.247785 0.446757
-0.845955 -0.387737 2.020635 0.456489 0.623616 -0.634603 0.309545 0.458623
-0.723234 -0.387737 2.238261 0.375391 0.603868 -0.703154 0.337329 0.507895
0.598143 -0.387737 2.136854 -0.163399 0.675600 -0.718934 0.636494 0.484936
0.973748 -0.387737 1.991010 -0.595312 0.615561 -0.516419 0.721532 0.451916
1.032997 -0.387737 1.736453 -0.675646 0.660724 -0.327026 0.734946 0.394284
1.370262 -0.387737 1.313263 -0.499834 0.674003 -0.543955 0.811304 0.298472
1.689295 -0.387737 1.100393 -0.710569 0.609958 -0.350773 0.883534 0.250277
1.672204 -0.387737 0.838999 -0.723545 0.618635 -0.306224 0.879665 0.191097
2.065300 -0.387737 0.504683 -0.643354 0.646498 -0.410043 0.968663 0.115407
2.204307 -0.387737 0.000125 -0.657349 0.564655 0.499056 1.000134 0.001173
-0.607349 -0.387737 -0.008990 -0.001147 0.706740 0.707472 0.363566 -0.000891
-0.804986 -0.387737 -0.008990 0.000000 0.707107 0.707107 0.318820 -0.000891
-1.002624 -0.387737 -0.008990 0.000000 0.707107 0.707107 0.274075 -0.000891
-1.397898 -0.387737 -0.008990 0.000000 0.707107 0.707107 0.184583 -0.000891
-1.978796 -0.387737 0.991010 0.655992 0.638570 -0.402372 0.472872 0.641840
-2.031209 -0.387737 0.741010 0.692061 0.707107 -0.145091 0.406012 0.641840
-2.031209 0.474022 0.741010 0.692061 -0.707107 -0.145091 0.406012 0.874790
-1.978796 0.474022 0.991010 0.655992 -0.638569 -0.402372 0.472872 0.874790
1.370262 -0.387737 1.313263 -0.499834 0.674003 -0.543955 0.380548 0.640183
1.032997 -0.387737 1.736453 -0.675646 0.660724 -0.327026 0.196472 0.640183
1.032997 0.474022 1.736453 -0.675646 -0.660724 -0.327027 0.196472 0.874166
1.370262 0.474022 1.313263 -0.499834 -0.674002 -0.543955 0.380548 0.874166
-1.401117 -0.387737 1.378679 0.284816 0.707107 -0.647209 0.629560 0.641840
-1.611907 -0.387737 1.285917 0.381193 0.678803 -0.627629 0.529825 0.641840
-1.611907 0.474022 1.285917 0.381193 -0.678803 -0.627629 0.529825 0.874790
-1.401117 0.474022 1.378679 0.284816 -0.707107 -0.647210 0.629560 0.874790
-2.083622 -0.387737 0.491010 0.692061 0.707107 -0.145091 0.339151 0.641840
-2.188447 -0.387737 -0.008990 0.639291 0.567254 0.519162 0.205431 0.641840
-2.188447 0.474022 -0.008990 0.639291 -0.567255 0.519162 0.205431 0.874790
-2.083622 0.474022 0.491010 0.692061 -0.707107 -0.145091 0.339151 0.874790
-1.190326 -0.387737 1.471441 0.629450 0.612481 -0.478184 0.790542 0.641840
-1.401117 -0.387737 1.378679 0.284816 0.707107 -0.647209 0.717433 0.641840
-1.401117 0.474022 1.378679 0.284816 -0.707107 -0.647210 0.717433 0.874790
-1.190326 0.474022 1.471441 0.629450 -0.612481 -0.478184 0.790542 0.874790
0.973748 -0.387737 1.991010 -0.595312 0.615561 -0.516419 0.837002 0.638932
0.598143 -0.387737 2.136854 -0.163399 0.675600 -0.718934 0.720204 0.638932
0.598143 0.474022 2.136854 -0.163398 -0.675600 -0.718934 0.720204 0.873823
0.973748 0.474022 1.991010 -0.595312 -0.615561 -0.516419 0.837002 0.873823
1.032997 -0.387737 1.736453 -0.675646 0.660724 -0.327026 0.217686 0.640183
0.973748 -0.387737 1.991010 -0.595312 0.615561 -0.516419 0.166692 0.640183
0.973748 0.474022 1.991010 -0.595312 -0.615561 -0.516419 0.166692 0.874166
1.032997 0.474022 1.736453 -0.675646 -0.660724 -0.327027 0.217686 0.874166
-0.723234 -0.387737 2.238261 0.375391 0.603868 -0.703154 0.309310 0.638932
-0.723234 0.474022 2.238261 0.375391 -0.603868 -0.703154 0.309310 0.873823
-0.845955 -0.387737 2.020635 0.456489 0.623616 -0.634603 0.271148 0.638932
-1.118743 -0.387737 1.968222 0.580414 0.596908 -0.553914 0.186322 0.638932
-1.118743 0.474022 1.968222 0.580414 -0.596907 -0.553914 0.186322 0.873823
-0.845955 0.474022 2.020635 0.456489 -0.623616 -0.634603 0.271148 0.873823
-1.118743 -0.387737 1.968222 0.580414 0.596908 -0.553914 0.318783 0.638932
-1.190326 -0.387737 1.471441 0.629450 0.612481 -0.478184 0.166305 0.638932
-1.190326 0.474022 1.471441 0.629450 -0.612481 -0.478184 0.166305 0.873823
-1.118743 0.474022 1.968222 0.580414 -0.596907 -0.553914 0.318783 0.873823
-1.978796 -0.387737 0.991010 0.655992 0.638570 -0.402372 0.356232 0.641840
-1.978796 0.474022 0.991010 0.655992 -0.638569 -0.402372 0.356232 0.874790
2.204307 -0.387737 0.000125 -0.657349 0.564655 0.499056 0.835762 0.640183
2.065300 -0.387737 0.504683 -0.643354 0.646498 -0.410043 0.759893 0.640183
2.065300 0.474022 0.504683 -0.643354 -0.646498 -0.410043 0.759893 0.874166
2.204307 0.474022 0.000126 -0.657349 -0.564655 0.499056 0.835762 0.874166
1.672204 -0.387737 0.838999 -0.723545 0.618635 -0.306224 0.546265 0.640183
1.689295 -0.387737 1.100393 -0.710569 0.609958 -0.350773 0.611861 0.640183
1.689295 0.474022 1.100393 -0.710569 -0.609958 -0.350773 0.611861 0.874166
1.672204 0.474022 0.838999 -0.723545 -0.618634 -0.306225 0.546265 0.874166
1.672204 -0.387737 0.838999 -0.723545 0.618635 -0.306224 0.545345 0.640183
1.672204 0.474022 0.838999 -0.723545 -0.618634 -0.306225 0.545345 0.874166
-0.723234 -0.387737 2.238261 0.375391 0.603868 -0.703154 0.418381 0.638932
-0.845955 -0.387737 2.020635 0.456489 0.623616 -0.634603 0.354887 0.638932
-0.845955 0.474022 2.020635 0.456489 -0.623616 -0.634603 0.354887 0.873823
-0.723234 0.474022 2.238261 0.375391 -0.603868 -0.703154 0.418381 0.873823
1.689295 -0.387737 1.100393 -0.710569 0.609958 -0.350773 0.468439 0.640183
1.370262 -0.387737 1.313263 -0.499834 0.674003 -0.543955 0.390187 0.640183
1.370262 0.474022 1.313263 -0.499834 -0.674002 -0.543955 0.390187 0.874166
1.689295 0.474022 1.100393 -0.710569 -0.609958 -0.350773 0.468439 0.874166
22 0 1 2 3 4 5 6 7 8 9 10 11 12 13 14 15 16 17 18 19 20 21
22 0 21 20 19 18 17 16 15 14 13 12 11 10 9 8 7 6 5 4 3 2 1
4 22 23 24 25
4 26 27 28 29
4 30 31 32 33
4 34 35 36 37
4 38 39 40 41
4 19 18 18 19
4 18 17 17 18
4 20 19 19 20
4 42 43 44 45
4 46 47 48 49
4 43 50 51 44
4 52 53 54 55
4 56 57 58 59
4 23 34 37 24
4 0 21 21 0
4 31 60 61 32
4 62 63 64 65
4 21 20 20 21
4 66 67 68 69
4 63 70 71 64
4 72 73 74 75
4 76 77 78 79
